<?xml version="1.0" encoding="utf-8"?>
<!-- Generator: Adobe Illustrator 27.5.0, SVG Export Plug-In . SVG Version: 6.00 Build 0)  -->
<svg version="1.1" id="Capa_1" xmlns="http://www.w3.org/2000/svg" xmlns:xlink="http://www.w3.org/1999/xlink" x="0px" y="0px"
	 viewBox="0 0 425.197 425.197" style="enable-background:new 0 0 425.197 425.197;" xml:space="preserve">
<g>
	<path style="fill:#0D1226;" d="M394.617,126.927h-6.558V107.52l-26.371-8.004v3.847l22.69,6.887v16.678h-6.558
		c-3.612,0-6.568,2.955-6.568,6.568v72.372c0,3.612,2.955,6.568,6.568,6.568h16.797c3.612,0,6.568-2.956,6.568-6.568v-72.372
		C401.185,129.882,398.229,126.927,394.617,126.927z"/>
	<path style="fill:#0D1226;" d="M37.138,108.315v19.407H30.58c-3.612,0-6.568,2.955-6.568,6.568v72.372
		c0,3.612,2.955,6.568,6.568,6.568h16.797c3.612,0,6.568-2.955,6.568-6.568V134.29c0-3.612-2.955-6.568-6.568-6.568h-6.558l0-16.678
		l22.69-6.887v-3.847L37.138,108.315z"/>
	<path style="fill:#0D1226;" d="M83.212,354.089v26.88c0,3.882,3.176,7.059,7.059,7.059h41.153c3.882,0,7.059-3.177,7.059-7.059
		v-26.88H83.336H83.212z"/>
	<path style="fill:#0D1226;" d="M286.714,354.089v26.88c0,3.882,3.177,7.059,7.059,7.059h41.153c3.882,0,7.059-3.177,7.059-7.059
		v-26.88h-0.124H286.714z"/>
	<path style="fill:#F99F41;" d="M318.779,37.169H106.418c-23.6,0-42.91,19.309-42.91,42.91v20.232v3.847v210.244h79.783v-46.859
		c0,0,5.941-28.36,69.307-27.7c63.367-0.66,69.307,27.7,69.307,27.7v46.859h79.783V103.362v-3.847V80.079
		C361.688,56.479,342.379,37.169,318.779,37.169z"/>
	<path style="fill:#B5D5E5;" d="M361.688,314.402h-79.783H143.291H63.509H50.655v17.96c0,11.95,9.235,21.727,20.521,21.727h12.036
		h0.124h55.147h148.23h55.147h0.124h12.036c11.287,0,20.521-9.777,20.521-21.727v-17.96H361.688z"/>
	<path style="fill:#0D1226;" d="M338.634,92.875H86.563c-7.15,0-13,5.85-13,13V216.08h9.618c-1.964-2.279-3.162-5.233-3.162-8.459
		v-94.988c0-7.15,5.85-13,13-13h41.993v0h39.324v0h11.011v0h22.022v0h7.865v0h39.324v0h37.751v0h33.033v0h6.836
		c7.15,0,13,5.85,13,13v94.988c0,3.226-1.198,6.18-3.162,8.459h9.618V105.875C351.634,98.725,345.784,92.875,338.634,92.875z"/>
	<path style="fill:#45C5E0;" d="M135.012,99.633H93.019c-7.15,0-13,5.85-13,13v94.988c0,3.226,1.198,6.18,3.162,8.459h17.993
		L135.012,99.633z"/>
	<polygon style="fill:#45C5E0;" points="151.509,216.08 185.347,99.633 174.336,99.633 140.499,216.08 	"/>
	<polygon style="fill:#45C5E0;" points="258.472,216.08 292.31,99.633 254.558,99.633 220.72,216.08 	"/>
	<polygon style="fill:#45C5E0;" points="181.396,216.08 215.234,99.633 207.369,99.633 173.531,216.08 	"/>
	<path style="fill:#45C5E0;" d="M342.016,216.08c1.964-2.279,3.162-5.233,3.162-8.459v-94.988c0-7.15-5.85-13-13-13h-6.836
		L291.504,216.08H342.016z"/>
	<polygon style="fill:#70CDE2;" points="140.499,216.08 174.336,99.633 174.336,99.633 135.012,99.633 135.012,99.633 
		101.174,216.08 	"/>
	<polygon style="fill:#70CDE2;" points="173.531,216.08 207.369,99.633 207.369,99.633 185.347,99.633 185.347,99.633 
		151.509,216.08 	"/>
	<polygon style="fill:#70CDE2;" points="220.72,216.08 254.558,99.633 254.558,99.633 215.234,99.633 215.234,99.633 
		181.396,216.08 	"/>
	<polygon style="fill:#70CDE2;" points="291.504,216.08 325.342,99.633 325.342,99.633 292.31,99.633 292.31,99.633 258.472,216.08 
			"/>
	<path style="fill:#4F76AC;" d="M291.504,216.08h-33.033H220.72h-39.324h-7.865h-22.022h-11.011h-39.324H83.181h-9.618h0v2.378
		c0,6.686,5.47,12.156,12.156,12.156h0.844h252.071h0.844c6.686,0,12.156-5.47,12.156-12.156v-0.844v-1.535h-9.618H291.504z"/>
	<path style="fill:#0D1226;" d="M126.878,87.147h171.44c0.914,0,1.662-0.748,1.662-1.662V53.311c0-0.914-0.748-1.662-1.662-1.662
		h-171.44c-0.914,0-1.662,0.748-1.662,1.662v32.174C125.216,86.399,125.964,87.147,126.878,87.147z"/>
	<circle style="fill:#0D1226;" cx="319.713" cy="277.66" r="26.014"/>
	
		<ellipse transform="matrix(0.9995 -0.0305 0.0305 0.9995 -8.3194 9.8798)" style="fill:#F3DA47;" cx="319.713" cy="277.66" rx="20.688" ry="20.688"/>
	<path style="fill:#FFFFFF;" d="M326.557,262.52c-5.831-2.784-11.631-2.792-12.955-0.018c-1.324,2.774,2.329,7.279,8.16,10.063
		c5.831,2.784,11.631,2.792,12.955,0.018C336.041,269.809,332.388,265.304,326.557,262.52z"/>
	<circle style="fill:#0D1226;" cx="105.484" cy="277.66" r="26.014"/>
	<circle style="fill:#F3DA47;" cx="105.484" cy="277.66" r="20.688"/>
	<path style="fill:#FFFFFF;" d="M112.328,262.52c-5.831-2.784-11.631-2.792-12.955-0.018c-1.324,2.774,2.329,7.279,8.16,10.063
		c5.831,2.784,11.631,2.792,12.955,0.018C121.812,269.809,118.159,265.304,112.328,262.52z"/>
	<path style="fill:#0D1226;" d="M212.598,239.843c-63.366-0.66-69.307,27.7-69.307,27.7v46.859h138.614v-46.859
		C281.905,267.543,275.965,239.183,212.598,239.843z"/>
	<path style="fill:#B5D5E5;" d="M160.123,259.097c-1.452,0-2.64,1.188-2.64,2.64v42.131c0,1.452,1.188,2.64,2.64,2.64
		c1.452,0,2.64-1.188,2.64-2.64v-42.131C162.763,260.285,161.575,259.097,160.123,259.097z"/>
	<path style="fill:#B5D5E5;" d="M175.305,254.344c-1.452,0-2.64,1.188-2.64,2.64v46.884c0,1.452,1.188,2.64,2.64,2.64
		c1.452,0,2.64-1.188,2.64-2.64v-46.884C177.945,255.533,176.757,254.344,175.305,254.344z"/>
	<path style="fill:#B5D5E5;" d="M190.486,250.339c-1.452,0-2.64,1.188-2.64,2.64v50.89c0,1.452,1.188,2.64,2.64,2.64
		c1.452,0,2.64-1.188,2.64-2.64v-50.89C193.126,251.527,191.938,250.339,190.486,250.339z"/>
	<path style="fill:#B5D5E5;" d="M205.668,247.698c-1.452,0-2.64,1.188-2.64,2.64v53.53c0,1.452,1.188,2.64,2.64,2.64
		c1.452,0,2.64-1.188,2.64-2.64v-53.53C208.308,248.887,207.12,247.698,205.668,247.698z"/>
	<path style="fill:#B5D5E5;" d="M265.074,259.122c-1.452,0-2.64,1.188-2.64,2.64v42.131c0,1.452,1.188,2.64,2.64,2.64
		c1.452,0,2.64-1.188,2.64-2.64v-42.131C267.714,260.311,266.526,259.122,265.074,259.122z"/>
	<path style="fill:#B5D5E5;" d="M249.892,254.37c-1.452,0-2.64,1.188-2.64,2.64v46.884c0,1.452,1.188,2.64,2.64,2.64
		c1.452,0,2.64-1.188,2.64-2.64V257.01C252.533,255.558,251.344,254.37,249.892,254.37z"/>
	<path style="fill:#B5D5E5;" d="M234.711,250.364c-1.452,0-2.64,1.188-2.64,2.64v50.89c0,1.452,1.188,2.64,2.64,2.64
		c1.452,0,2.64-1.188,2.64-2.64v-50.89C237.351,251.552,236.163,250.364,234.711,250.364z"/>
	<path style="fill:#B5D5E5;" d="M219.529,247.724c-1.452,0-2.64,1.188-2.64,2.64v53.53c0,1.452,1.188,2.64,2.64,2.64
		c1.452,0,2.64-1.188,2.64-2.64v-53.53C222.169,248.912,220.981,247.724,219.529,247.724z"/>
	<path style="fill:#E3533B;" d="M333.829,327.189c-3.897,0-7.056,3.159-7.056,7.056c0,3.897,3.159,7.056,7.056,7.056
		c3.897,0,7.056-3.159,7.056-7.056C340.885,330.348,337.726,327.189,333.829,327.189z"/>
	<path style="fill:#EEB845;" d="M354.417,341.301c3.897,0,7.056-3.159,7.056-7.056c0-3.897-3.159-7.056-7.056-7.056
		c-3.897,0-7.056,3.159-7.056,7.056C347.361,338.142,350.52,341.301,354.417,341.301z"/>
	<path style="fill:#EEB845;" d="M70.78,341.301c3.897,0,7.056-3.159,7.056-7.056c0-3.897-3.159-7.056-7.056-7.056
		c-3.897,0-7.056,3.159-7.056,7.056C63.724,338.142,66.883,341.301,70.78,341.301z"/>
	<path style="fill:#E3533B;" d="M91.368,327.189c-3.897,0-7.056,3.159-7.056,7.056c0,3.897,3.159,7.056,7.056,7.056
		c3.897,0,7.056-3.159,7.056-7.056C98.424,330.348,95.265,327.189,91.368,327.189z"/>
</g>
</svg>
