<?xml version="1.0" encoding="utf-8"?>
<!-- Generator: Adobe Illustrator 27.5.0, SVG Export Plug-In . SVG Version: 6.00 Build 0)  -->
<svg version="1.1" xmlns="http://www.w3.org/2000/svg" xmlns:xlink="http://www.w3.org/1999/xlink" x="0px" y="0px"
	 viewBox="0 0 800 800" style="enable-background:new 0 0 800 800;" xml:space="preserve">
<g id="background">
	<rect x="-9.389" y="-8.261" style="fill:#FAE9B4;" width="819.331" height="819.331"/>
	
		<rect x="-9.389" y="-8.261" style="fill:none;stroke:#FFFFFF;stroke-width:3;stroke-miterlimit:10;" width="819.331" height="819.331"/>
</g>
<g id="object">
	<g>
		<g>
			<g>
				<path style="fill:#5E4130;" d="M285.963,788.622v-0.258c-0.349,0.398-0.692,0.725-1.031,0.973
					c-0.338,0.252-0.706,0.441-1.102,0.57c-0.396,0.133-0.827,0.195-1.296,0.195c-0.621,0-1.196-0.131-1.725-0.392
					c-0.528-0.264-0.986-0.639-1.372-1.127c-0.387-0.486-0.68-1.059-0.879-1.719c-0.199-0.658-0.299-1.371-0.299-2.137
					c0-1.621,0.396-2.885,1.188-3.791c0.792-0.904,1.833-1.357,3.125-1.357c0.747,0,1.377,0.129,1.89,0.385
					c0.513,0.256,1.013,0.652,1.501,1.182v-3.826c0-0.533,0.105-0.934,0.318-1.207c0.211-0.271,0.514-0.408,0.907-0.408
					c0.393,0,0.694,0.125,0.907,0.375c0.212,0.252,0.318,0.619,0.318,1.107v11.436c0,0.494-0.113,0.863-0.342,1.111
					c-0.228,0.246-0.522,0.369-0.883,0.369c-0.354,0-0.648-0.127-0.879-0.383C286.079,789.462,285.963,789.097,285.963,788.622z
					 M280.863,784.813c0,0.703,0.109,1.301,0.328,1.795c0.219,0.494,0.518,0.865,0.897,1.115c0.38,0.25,0.795,0.377,1.244,0.377
					c0.456,0,0.872-0.119,1.249-0.357c0.377-0.236,0.677-0.602,0.902-1.092c0.225-0.49,0.337-1.106,0.337-1.838
					c0-0.691-0.112-1.285-0.337-1.783c-0.225-0.496-0.528-0.875-0.912-1.139c-0.383-0.262-0.803-0.393-1.258-0.393
					c-0.475,0-0.899,0.135-1.273,0.402c-0.374,0.269-0.663,0.654-0.869,1.158C280.965,783.563,280.863,784.148,280.863,784.813z"/>
				<path style="fill:#5E4130;" d="M297.397,785.47h-5.071c0.006,0.588,0.125,1.107,0.356,1.557c0.23,0.449,0.538,0.789,0.921,1.016
					c0.383,0.229,0.806,0.342,1.268,0.342c0.31,0,0.593-0.035,0.85-0.107c0.257-0.074,0.505-0.188,0.746-0.344
					c0.241-0.154,0.462-0.32,0.665-0.498c0.202-0.178,0.464-0.42,0.788-0.723c0.133-0.113,0.323-0.172,0.571-0.172
					c0.266,0,0.48,0.074,0.645,0.221c0.165,0.147,0.248,0.35,0.248,0.617c0,0.234-0.093,0.506-0.275,0.82
					c-0.185,0.315-0.462,0.615-0.831,0.902c-0.372,0.289-0.836,0.527-1.397,0.717c-0.56,0.191-1.204,0.285-1.933,0.285
					c-1.665,0-2.96-0.475-3.884-1.424c-0.924-0.949-1.386-2.238-1.386-3.865c0-0.768,0.113-1.478,0.341-2.133
					c0.229-0.656,0.561-1.217,0.997-1.686c0.437-0.469,0.975-0.828,1.615-1.078c0.639-0.25,1.349-0.375,2.127-0.375
					c1.013,0,1.882,0.213,2.606,0.641c0.726,0.428,1.27,0.98,1.63,1.656c0.36,0.678,0.542,1.369,0.542,2.07
					c0,0.654-0.187,1.076-0.56,1.27C298.602,785.372,298.075,785.47,297.397,785.47z M292.326,783.997h4.702
					c-0.063-0.887-0.303-1.551-0.717-1.99c-0.415-0.441-0.961-0.66-1.638-0.66c-0.646,0-1.177,0.223-1.591,0.668
					C292.666,782.462,292.415,783.122,292.326,783.997z"/>
				<path style="fill:#5E4130;" d="M309.212,786.712c0,0.715-0.173,1.328-0.522,1.838c-0.348,0.51-0.862,0.896-1.543,1.16
					c-0.68,0.262-1.508,0.392-2.483,0.392c-0.931,0-1.729-0.142-2.394-0.428c-0.665-0.283-1.156-0.641-1.472-1.066
					c-0.317-0.43-0.475-0.857-0.475-1.289c0-0.285,0.101-0.527,0.304-0.73c0.202-0.201,0.459-0.303,0.77-0.303
					c0.271,0,0.48,0.066,0.626,0.199c0.146,0.133,0.286,0.32,0.417,0.558c0.266,0.465,0.585,0.807,0.956,1.037
					c0.37,0.227,0.875,0.342,1.515,0.342c0.519,0,0.945-0.117,1.277-0.348c0.332-0.232,0.498-0.496,0.498-0.793
					c0-0.457-0.172-0.787-0.517-0.996c-0.345-0.209-0.914-0.41-1.705-0.6c-0.893-0.221-1.619-0.455-2.18-0.699
					c-0.561-0.242-1.008-0.564-1.344-0.963c-0.335-0.398-0.503-0.891-0.503-1.473c0-0.518,0.155-1.01,0.465-1.473
					c0.31-0.461,0.768-0.83,1.374-1.106c0.603-0.275,1.333-0.414,2.188-0.414c0.671,0,1.275,0.07,1.809,0.211
					c0.536,0.137,0.983,0.326,1.34,0.561c0.358,0.232,0.63,0.492,0.816,0.777s0.28,0.563,0.28,0.836c0,0.297-0.1,0.541-0.298,0.733
					c-0.199,0.188-0.483,0.285-0.851,0.285c-0.266,0-0.492-0.076-0.679-0.231c-0.187-0.15-0.4-0.379-0.641-0.682
					c-0.196-0.254-0.426-0.457-0.693-0.609c-0.266-0.152-0.627-0.227-1.083-0.227c-0.469,0-0.857,0.098-1.168,0.299
					c-0.31,0.199-0.465,0.447-0.465,0.744c0,0.273,0.114,0.496,0.341,0.67c0.228,0.176,0.535,0.32,0.922,0.434
					c0.386,0.113,0.917,0.252,1.596,0.416c0.803,0.197,1.46,0.432,1.97,0.703c0.509,0.271,0.896,0.594,1.16,0.965
					C309.081,785.815,309.212,786.237,309.212,786.712z"/>
				<path style="fill:#5E4130;" d="M311.861,778.354c-0.361,0-0.669-0.111-0.926-0.332c-0.256-0.221-0.385-0.535-0.385-0.941
					c0-0.367,0.131-0.668,0.394-0.906c0.263-0.238,0.569-0.357,0.916-0.357c0.336,0,0.633,0.107,0.893,0.324
					c0.26,0.215,0.39,0.527,0.39,0.94c0,0.4-0.128,0.711-0.381,0.935C312.51,778.241,312.209,778.354,311.861,778.354z
					 M313.144,781.032v7.494c0,0.519-0.124,0.912-0.371,1.178c-0.247,0.266-0.56,0.398-0.94,0.398s-0.689-0.135-0.926-0.408
					c-0.238-0.271-0.356-0.662-0.356-1.168v-7.418c0-0.512,0.118-0.898,0.356-1.158c0.237-0.26,0.546-0.391,0.926-0.391
					s0.693,0.131,0.94,0.391C313.02,780.21,313.144,780.571,313.144,781.032z"/>
				<path style="fill:#5E4130;" d="M324.502,781.46v7.531c0,0.861-0.093,1.604-0.277,2.225c-0.182,0.619-0.477,1.133-0.883,1.537
					c-0.405,0.404-0.936,0.707-1.59,0.902c-0.655,0.197-1.471,0.295-2.446,0.295c-0.893,0-1.69-0.125-2.394-0.375
					c-0.702-0.252-1.243-0.574-1.624-0.969c-0.379-0.396-0.57-0.803-0.57-1.221c0-0.316,0.108-0.576,0.324-0.773
					c0.215-0.201,0.475-0.301,0.778-0.301c0.38,0,0.712,0.168,0.998,0.504c0.139,0.17,0.283,0.344,0.432,0.518
					c0.149,0.176,0.315,0.324,0.494,0.447c0.181,0.123,0.397,0.215,0.65,0.275c0.253,0.059,0.545,0.09,0.874,0.09
					c0.671,0,1.192-0.094,1.563-0.281c0.371-0.186,0.63-0.447,0.779-0.783c0.149-0.334,0.236-0.693,0.261-1.078
					c0.025-0.383,0.044-0.998,0.057-1.848c-0.399,0.559-0.859,0.982-1.382,1.273c-0.522,0.291-1.145,0.438-1.866,0.438
					c-0.868,0-1.625-0.223-2.275-0.666c-0.648-0.443-1.147-1.063-1.495-1.861c-0.349-0.799-0.522-1.719-0.522-2.764
					c0-0.777,0.105-1.482,0.317-2.107c0.213-0.629,0.515-1.156,0.907-1.588c0.393-0.43,0.845-0.754,1.358-0.973
					s1.076-0.328,1.691-0.328c0.734,0,1.371,0.143,1.909,0.422c0.538,0.283,1.039,0.725,1.5,1.326v-0.352
					c0-0.449,0.11-0.797,0.332-1.045c0.222-0.246,0.507-0.371,0.855-0.371c0.5,0,0.832,0.164,0.997,0.49
					C324.419,780.376,324.502,780.847,324.502,781.46z M316.989,784.747c0,1.051,0.229,1.846,0.688,2.383
					c0.459,0.539,1.053,0.809,1.781,0.809c0.43,0,0.837-0.117,1.22-0.348c0.384-0.23,0.695-0.58,0.936-1.045
					c0.24-0.465,0.361-1.029,0.361-1.695c0-1.057-0.232-1.881-0.698-2.469c-0.466-0.588-1.078-0.883-1.838-0.883
					c-0.741,0-1.335,0.281-1.78,0.846C317.212,782.907,316.989,783.708,316.989,784.747z"/>
				<path style="fill:#5E4130;" d="M328.623,780.995v0.313c0.455-0.602,0.954-1.043,1.496-1.324
					c0.542-0.281,1.163-0.424,1.866-0.424c0.684,0,1.295,0.15,1.833,0.447c0.538,0.299,0.941,0.719,1.206,1.262
					c0.172,0.318,0.282,0.66,0.332,1.027c0.051,0.367,0.077,0.836,0.077,1.406v4.824c0,0.519-0.119,0.912-0.357,1.178
					c-0.237,0.266-0.546,0.398-0.926,0.398c-0.387,0-0.7-0.135-0.94-0.408c-0.241-0.271-0.361-0.662-0.361-1.168v-4.322
					c0-0.854-0.119-1.508-0.356-1.961c-0.238-0.451-0.711-0.68-1.42-0.68c-0.461,0-0.883,0.139-1.263,0.414
					c-0.38,0.275-0.659,0.654-0.836,1.135c-0.126,0.387-0.19,1.107-0.19,2.166v3.248c0,0.525-0.123,0.92-0.365,1.184
					c-0.244,0.262-0.559,0.392-0.945,0.392c-0.375,0-0.681-0.135-0.922-0.408c-0.24-0.271-0.361-0.662-0.361-1.168v-7.494
					c0-0.494,0.107-0.863,0.323-1.107c0.215-0.242,0.51-0.365,0.883-0.365c0.228,0,0.434,0.055,0.619,0.162
					c0.183,0.109,0.331,0.27,0.441,0.484C328.568,780.421,328.623,780.685,328.623,780.995z"/>
				<path style="fill:#5E4130;" d="M344.397,785.47h-5.071c0.007,0.588,0.124,1.107,0.356,1.557
					c0.231,0.449,0.538,0.789,0.921,1.016c0.382,0.229,0.805,0.342,1.267,0.342c0.31,0,0.594-0.035,0.851-0.107
					c0.255-0.074,0.504-0.188,0.746-0.344c0.24-0.154,0.461-0.32,0.665-0.498c0.202-0.178,0.464-0.42,0.788-0.723
					c0.133-0.113,0.323-0.172,0.57-0.172c0.266,0,0.481,0.074,0.646,0.221c0.165,0.147,0.247,0.35,0.247,0.617
					c0,0.234-0.091,0.506-0.275,0.82c-0.184,0.315-0.461,0.615-0.832,0.902c-0.371,0.289-0.835,0.527-1.395,0.717
					c-0.561,0.191-1.205,0.285-1.933,0.285c-1.665,0-2.96-0.475-3.885-1.424c-0.923-0.949-1.386-2.238-1.386-3.865
					c0-0.768,0.114-1.478,0.342-2.133c0.228-0.656,0.561-1.217,0.998-1.686c0.436-0.469,0.975-0.828,1.614-1.078
					c0.639-0.25,1.349-0.375,2.128-0.375c1.013,0,1.881,0.213,2.606,0.641c0.726,0.428,1.268,0.98,1.63,1.656
					c0.36,0.678,0.542,1.369,0.542,2.07c0,0.654-0.187,1.076-0.561,1.27C345.602,785.372,345.076,785.47,344.397,785.47z
					 M339.326,783.997h4.701c-0.063-0.887-0.302-1.551-0.717-1.99c-0.415-0.441-0.961-0.66-1.638-0.66
					c-0.647,0-1.177,0.223-1.592,0.668C339.665,782.462,339.415,783.122,339.326,783.997z"/>
				<path style="fill:#5E4130;" d="M354.967,788.622v-0.258c-0.348,0.398-0.691,0.725-1.03,0.973
					c-0.339,0.252-0.706,0.441-1.102,0.57c-0.395,0.133-0.828,0.195-1.296,0.195c-0.622,0-1.196-0.131-1.724-0.392
					c-0.529-0.264-0.986-0.639-1.372-1.127c-0.387-0.486-0.679-1.059-0.878-1.719c-0.2-0.658-0.299-1.371-0.299-2.137
					c0-1.621,0.395-2.885,1.187-3.791c0.792-0.904,1.833-1.357,3.125-1.357c0.747,0,1.378,0.129,1.89,0.385
					c0.513,0.256,1.013,0.652,1.5,1.182v-3.826c0-0.533,0.106-0.934,0.319-1.207c0.211-0.271,0.515-0.408,0.907-0.408
					c0.392,0,0.694,0.125,0.907,0.375c0.212,0.252,0.318,0.619,0.318,1.107v11.436c0,0.494-0.114,0.863-0.342,1.111
					c-0.228,0.246-0.522,0.369-0.883,0.369c-0.354,0-0.647-0.127-0.879-0.383C355.083,789.462,354.967,789.097,354.967,788.622z
					 M349.868,784.813c0,0.703,0.108,1.301,0.327,1.795c0.218,0.494,0.518,0.865,0.898,1.115c0.379,0.25,0.794,0.377,1.243,0.377
					c0.457,0,0.873-0.119,1.249-0.357c0.377-0.236,0.678-0.602,0.902-1.092c0.225-0.49,0.337-1.106,0.337-1.838
					c0-0.691-0.112-1.285-0.337-1.783c-0.224-0.496-0.528-0.875-0.912-1.139c-0.384-0.262-0.803-0.393-1.259-0.393
					c-0.474,0-0.899,0.135-1.272,0.402c-0.373,0.269-0.663,0.654-0.869,1.158C349.97,783.563,349.868,784.148,349.868,784.813z"/>
				<path style="fill:#5E4130;" d="M365.565,777.187v3.959c0.487-0.506,0.984-0.895,1.491-1.162
					c0.506-0.269,1.134-0.404,1.881-0.404c0.861,0,1.616,0.205,2.266,0.611c0.648,0.41,1.151,1.002,1.51,1.777
					c0.357,0.775,0.537,1.695,0.537,2.76c0,0.785-0.1,1.504-0.299,2.16c-0.2,0.656-0.49,1.225-0.869,1.705
					c-0.38,0.48-0.841,0.854-1.382,1.117c-0.542,0.262-1.139,0.392-1.79,0.392c-0.399,0-0.775-0.047-1.125-0.142
					c-0.352-0.094-0.651-0.219-0.898-0.375c-0.246-0.154-0.457-0.315-0.631-0.479c-0.174-0.164-0.404-0.412-0.689-0.742v0.258
					c0,0.486-0.117,0.855-0.352,1.107c-0.233,0.25-0.531,0.373-0.893,0.373c-0.367,0-0.66-0.123-0.878-0.373
					c-0.219-0.252-0.328-0.621-0.328-1.107V777.3c0-0.525,0.106-0.924,0.317-1.191c0.212-0.269,0.509-0.404,0.889-0.404
					c0.399,0,0.706,0.129,0.921,0.385C365.457,776.347,365.565,776.71,365.565,777.187z M365.689,784.89
					c0,1.031,0.236,1.824,0.707,2.377c0.472,0.555,1.091,0.834,1.857,0.834c0.652,0,1.214-0.283,1.686-0.852
					c0.472-0.566,0.707-1.379,0.707-2.436c0-0.684-0.097-1.273-0.294-1.768c-0.197-0.494-0.475-0.875-0.835-1.144
					c-0.361-0.268-0.783-0.402-1.264-0.402c-0.494,0-0.935,0.135-1.32,0.402c-0.386,0.269-0.69,0.658-0.912,1.168
					C365.8,783.579,365.689,784.187,365.689,784.89z"/>
				<path style="fill:#5E4130;" d="M376.611,790.427l0.237-0.58l-3.191-8.035c-0.196-0.461-0.295-0.799-0.295-1.008
					c0-0.221,0.058-0.426,0.171-0.615c0.114-0.191,0.271-0.344,0.47-0.457c0.2-0.115,0.407-0.172,0.623-0.172
					c0.373,0,0.655,0.119,0.846,0.357c0.19,0.236,0.357,0.576,0.503,1.02l2.194,6.383l2.08-5.935
					c0.164-0.48,0.314-0.857,0.446-1.131c0.133-0.272,0.273-0.455,0.422-0.549c0.148-0.096,0.359-0.145,0.633-0.145
					c0.197,0,0.385,0.053,0.564,0.158c0.181,0.104,0.32,0.244,0.418,0.422c0.098,0.178,0.148,0.363,0.148,0.561
					c-0.027,0.119-0.066,0.291-0.125,0.514c-0.057,0.221-0.126,0.447-0.208,0.674l-3.382,8.852
					c-0.292,0.779-0.576,1.389-0.855,1.832c-0.279,0.443-0.647,0.785-1.106,1.021c-0.46,0.238-1.078,0.357-1.857,0.357
					c-0.759,0-1.33-0.082-1.708-0.246c-0.381-0.166-0.57-0.467-0.57-0.904c0-0.297,0.089-0.527,0.271-0.688
					c0.18-0.162,0.448-0.244,0.801-0.244c0.14,0,0.276,0.019,0.409,0.059c0.164,0.037,0.307,0.057,0.427,0.057
					c0.297,0,0.532-0.043,0.704-0.133c0.17-0.088,0.324-0.242,0.46-0.461C376.277,791.173,376.434,790.851,376.611,790.427z"/>
			</g>
			<g>
				<path style="fill:#5E4130;" d="M414.174,779.784h0.619v-0.777c0-0.814,0.1-1.457,0.307-1.938
					c0.203-0.478,0.555-0.826,1.047-1.045c0.49-0.217,1.162-0.326,2.016-0.326c1.52,0,2.273,0.367,2.273,1.113
					c0,0.238-0.08,0.445-0.24,0.615c-0.154,0.17-0.344,0.256-0.559,0.256c-0.1,0-0.277-0.018-0.527-0.059
					c-0.236-0.033-0.451-0.057-0.623-0.057c-0.467,0-0.766,0.141-0.904,0.416c-0.127,0.275-0.195,0.668-0.195,1.184v0.617h0.633
					c0.99,0,1.48,0.297,1.48,0.897c0,0.418-0.127,0.689-0.393,0.805c-0.262,0.113-0.623,0.17-1.088,0.17h-0.633v6.871
					c0,0.512-0.121,0.9-0.369,1.168c-0.242,0.273-0.555,0.406-0.943,0.406c-0.367,0-0.67-0.133-0.918-0.406
					c-0.244-0.267-0.363-0.656-0.363-1.168v-6.871h-0.715c-0.389,0-0.682-0.084-0.893-0.262c-0.209-0.17-0.314-0.398-0.314-0.678
					C412.871,780.093,413.305,779.784,414.174,779.784"/>
				<path style="fill:#5E4130;" d="M422.664,786.358v2.168c0,0.523-0.133,0.92-0.375,1.18c-0.246,0.266-0.559,0.394-0.938,0.394
					c-0.381,0-0.688-0.131-0.926-0.4c-0.236-0.264-0.361-0.656-0.361-1.174v-7.223c0-1.166,0.42-1.748,1.262-1.748
					c0.434,0,0.742,0.135,0.934,0.408c0.189,0.273,0.295,0.674,0.316,1.207c0.309-0.533,0.625-0.934,0.949-1.207
					c0.332-0.273,0.762-0.408,1.309-0.408c0.549,0,1.072,0.135,1.586,0.408c0.516,0.273,0.771,0.637,0.771,1.084
					c0,0.314-0.111,0.58-0.326,0.781c-0.221,0.209-0.455,0.313-0.707,0.313c-0.1,0-0.33-0.063-0.691-0.18
					c-0.365-0.113-0.69-0.174-0.963-0.174c-0.381,0-0.693,0.104-0.932,0.299c-0.242,0.205-0.432,0.496-0.565,0.887
					c-0.129,0.395-0.219,0.865-0.273,1.404C422.685,784.919,422.664,785.581,422.664,786.358"/>
				<path style="fill:#5E4130;" d="M434.584,785.466h-5.074c0.01,0.588,0.125,1.111,0.355,1.559
					c0.234,0.447,0.539,0.787,0.924,1.018c0.385,0.227,0.805,0.34,1.27,0.34c0.31,0,0.592-0.033,0.85-0.111
					c0.254-0.07,0.504-0.185,0.744-0.342c0.242-0.152,0.461-0.318,0.664-0.5c0.203-0.174,0.467-0.416,0.791-0.719
					c0.135-0.113,0.324-0.174,0.568-0.174c0.268,0,0.48,0.074,0.648,0.223c0.166,0.146,0.244,0.35,0.244,0.617
					c0,0.234-0.09,0.508-0.268,0.818c-0.188,0.318-0.463,0.617-0.836,0.906c-0.375,0.285-0.84,0.527-1.398,0.715
					c-0.559,0.189-1.205,0.285-1.932,0.285c-1.67,0-2.963-0.473-3.887-1.422c-0.924-0.951-1.391-2.242-1.391-3.867
					c0-0.768,0.117-1.479,0.348-2.135c0.225-0.658,0.557-1.217,0.998-1.688c0.436-0.471,0.971-0.828,1.613-1.078
					c0.637-0.25,1.346-0.375,2.127-0.375c1.012,0,1.881,0.215,2.607,0.647c0.723,0.422,1.273,0.977,1.629,1.654
					c0.361,0.68,0.541,1.367,0.541,2.074c0,0.648-0.188,1.07-0.561,1.266C435.787,785.37,435.262,785.466,434.584,785.466
					 M429.51,783.991h4.701c-0.063-0.885-0.297-1.549-0.713-1.986c-0.418-0.441-0.959-0.66-1.641-0.66
					c-0.647,0-1.178,0.221-1.592,0.67C429.852,782.46,429.598,783.118,429.51,783.991"/>
				<path style="fill:#5E4130;" d="M445.371,785.466h-5.072c0.006,0.588,0.125,1.111,0.353,1.559
					c0.233,0.447,0.539,0.787,0.922,1.018c0.383,0.227,0.805,0.34,1.272,0.34c0.307,0,0.592-0.033,0.844-0.111
					c0.26-0.07,0.506-0.185,0.75-0.342c0.242-0.152,0.461-0.318,0.664-0.5c0.199-0.174,0.465-0.416,0.789-0.719
					c0.135-0.113,0.326-0.174,0.568-0.174c0.268,0,0.483,0.074,0.65,0.223c0.164,0.146,0.24,0.35,0.24,0.617
					c0,0.234-0.088,0.508-0.273,0.818c-0.178,0.318-0.455,0.617-0.83,0.906c-0.371,0.285-0.84,0.527-1.396,0.715
					c-0.557,0.189-1.207,0.285-1.934,0.285c-1.668,0-2.959-0.473-3.887-1.422c-0.924-0.951-1.389-2.242-1.389-3.867
					c0-0.768,0.115-1.479,0.348-2.135c0.227-0.658,0.559-1.217,0.996-1.688c0.436-0.471,0.973-0.828,1.613-1.078
					c0.639-0.25,1.352-0.375,2.129-0.375c1.01,0,1.879,0.215,2.613,0.647c0.721,0.422,1.266,0.977,1.621,1.654
					c0.359,0.68,0.545,1.367,0.545,2.074c0,0.648-0.191,1.07-0.56,1.266C446.572,785.37,446.047,785.466,445.371,785.466
					 M440.299,783.991H445c-0.065-0.885-0.305-1.549-0.715-1.986c-0.422-0.441-0.963-0.66-1.643-0.66
					c-0.646,0-1.176,0.221-1.594,0.67C440.637,782.46,440.383,783.118,440.299,783.991"/>
				<path style="fill:#5E4130;" d="M451.051,781.015v0.311c0.486-0.602,0.994-1.043,1.525-1.324
					c0.518-0.285,1.117-0.428,1.781-0.428c0.795,0,1.535,0.209,2.207,0.617c0.672,0.414,1.199,1.016,1.59,1.807
					c0.389,0.795,0.586,1.73,0.586,2.814c0,0.795-0.113,1.531-0.336,2.201c-0.225,0.668-0.537,1.227-0.93,1.68
					c-0.393,0.449-0.855,0.801-1.389,1.045c-0.543,0.242-1.111,0.363-1.728,0.363c-0.738,0-1.363-0.148-1.865-0.447
					c-0.502-0.291-0.982-0.732-1.441-1.305v3.893c0,1.135-0.416,1.709-1.244,1.709c-0.49,0-0.809-0.146-0.971-0.44
					c-0.152-0.299-0.234-0.723-0.234-1.291v-11.193c0-0.494,0.107-0.859,0.32-1.108c0.215-0.238,0.512-0.363,0.885-0.363
					c0.369,0,0.666,0.125,0.897,0.373C450.938,780.183,451.051,780.54,451.051,781.015 M456.135,784.782
					c0-0.686-0.105-1.273-0.315-1.764c-0.209-0.492-0.498-0.867-0.865-1.127c-0.367-0.264-0.783-0.396-1.232-0.396
					c-0.715,0-1.318,0.283-1.809,0.844c-0.492,0.566-0.74,1.394-0.74,2.492c0,1.027,0.244,1.834,0.736,2.406
					c0.486,0.574,1.086,0.859,1.813,0.859c0.428,0,0.83-0.127,1.197-0.373c0.371-0.252,0.664-0.627,0.883-1.127
					C456.023,786.095,456.135,785.489,456.135,784.782"/>
				<path style="fill:#5E4130;" d="M461.352,778.349c-0.363,0-0.67-0.115-0.924-0.336c-0.26-0.223-0.387-0.531-0.387-0.936
					c0-0.369,0.131-0.67,0.397-0.91c0.262-0.234,0.566-0.355,0.914-0.355c0.34,0,0.635,0.105,0.892,0.318
					c0.26,0.219,0.391,0.535,0.391,0.947c0,0.398-0.127,0.711-0.377,0.936C462.004,778.233,461.703,778.349,461.352,778.349
					 M462.635,781.026v7.502c0,0.516-0.123,0.908-0.369,1.172c-0.25,0.27-0.561,0.4-0.941,0.4c-0.381,0-0.685-0.133-0.928-0.406
					c-0.234-0.275-0.355-0.664-0.355-1.166v-7.428c0-0.51,0.121-0.894,0.355-1.154c0.242-0.264,0.547-0.391,0.928-0.391
					c0.381,0,0.691,0.127,0.941,0.391C462.512,780.206,462.635,780.569,462.635,781.026"/>
				<path style="fill:#5E4130;" d="M470.994,788.917l-2.283-3.766l-1.408,1.328v2.066c0,0.498-0.133,0.881-0.396,1.148
					c-0.258,0.273-0.566,0.406-0.906,0.406c-0.398,0-0.715-0.131-0.941-0.4c-0.227-0.264-0.344-0.656-0.344-1.174v-11.063
					c0-0.574,0.115-1.012,0.332-1.315c0.223-0.305,0.545-0.451,0.953-0.451c0.398,0,0.713,0.137,0.949,0.41
					c0.234,0.271,0.353,0.674,0.353,1.203v6.293l2.916-3.063c0.361-0.377,0.633-0.641,0.826-0.779
					c0.189-0.139,0.42-0.207,0.689-0.207c0.326,0,0.594,0.103,0.816,0.309c0.211,0.205,0.32,0.465,0.32,0.773
					c0,0.379-0.354,0.889-1.055,1.521l-1.377,1.262l2.658,4.184c0.193,0.313,0.34,0.543,0.424,0.705
					c0.084,0.16,0.131,0.32,0.131,0.463c0,0.412-0.115,0.734-0.342,0.975c-0.225,0.236-0.523,0.354-0.885,0.354
					c-0.316,0-0.564-0.08-0.734-0.256C471.521,789.673,471.285,789.362,470.994,788.917"/>
				<path style="fill:#5E4130;" d="M476.631,790.101c-0.393,0-0.729-0.125-1.014-0.381c-0.285-0.248-0.43-0.605-0.43-1.064
					c0-0.385,0.139-0.719,0.41-0.994c0.275-0.279,0.607-0.42,1.008-0.42c0.398,0,0.736,0.141,1.023,0.412
					c0.279,0.275,0.422,0.613,0.422,1.002c0,0.453-0.143,0.809-0.422,1.061C477.342,789.976,477.01,790.101,476.631,790.101"/>
				<path style="fill:#5E4130;" d="M489.529,786.892c0,0.32-0.098,0.668-0.291,1.033c-0.191,0.371-0.488,0.719-0.887,1.051
					c-0.395,0.332-0.891,0.602-1.494,0.803c-0.602,0.203-1.281,0.307-2.031,0.307c-1.606,0-2.857-0.469-3.758-1.4
					c-0.895-0.936-1.346-2.189-1.346-3.76c0-1.068,0.205-2.006,0.619-2.824c0.408-0.815,1.004-1.447,1.781-1.894
					c0.779-0.447,1.717-0.67,2.795-0.67c0.674,0,1.287,0.098,1.852,0.295c0.561,0.195,1.033,0.451,1.426,0.76
					c0.387,0.314,0.686,0.643,0.889,0.992c0.207,0.352,0.309,0.68,0.309,0.986c0,0.309-0.113,0.572-0.344,0.787
					c-0.234,0.215-0.516,0.324-0.838,0.324c-0.219,0-0.398-0.057-0.541-0.166c-0.145-0.111-0.305-0.289-0.479-0.541
					c-0.318-0.478-0.646-0.842-0.996-1.08c-0.344-0.242-0.781-0.361-1.314-0.361c-0.762,0-1.383,0.297-1.854,0.896
					c-0.467,0.596-0.703,1.42-0.703,2.455c0,0.488,0.063,0.939,0.184,1.348c0.117,0.406,0.291,0.756,0.52,1.043
					c0.23,0.287,0.504,0.506,0.826,0.654c0.324,0.154,0.682,0.227,1.065,0.227c0.521,0,0.967-0.121,1.336-0.361
					c0.377-0.24,0.703-0.607,0.986-1.102c0.158-0.291,0.328-0.518,0.51-0.684c0.182-0.164,0.408-0.25,0.676-0.25
					c0.316,0,0.58,0.123,0.785,0.363C489.422,786.362,489.529,786.62,489.529,786.892"/>
				<path style="fill:#5E4130;" d="M500.719,784.831c0,0.769-0.121,1.484-0.355,2.139c-0.246,0.652-0.592,1.213-1.049,1.678
					c-0.455,0.469-1.002,0.828-1.633,1.08c-0.639,0.248-1.35,0.375-2.139,0.375c-0.785,0-1.492-0.127-2.121-0.383
					c-0.623-0.248-1.17-0.613-1.625-1.082c-0.461-0.477-0.809-1.033-1.053-1.676c-0.228-0.645-0.35-1.356-0.35-2.131
					c0-0.787,0.123-1.506,0.358-2.158c0.242-0.654,0.59-1.213,1.039-1.674c0.451-0.461,0.994-0.816,1.631-1.07
					c0.645-0.248,1.35-0.373,2.121-0.373c0.785,0,1.498,0.125,2.139,0.381c0.639,0.252,1.184,0.615,1.645,1.08
					c0.457,0.475,0.803,1.029,1.039,1.672C500.6,783.339,500.719,784.048,500.719,784.831 M498.115,784.831
					c0-1.059-0.234-1.881-0.697-2.469c-0.463-0.596-1.09-0.889-1.875-0.889c-0.508,0-0.955,0.133-1.342,0.395
					c-0.387,0.262-0.682,0.648-0.891,1.164c-0.209,0.514-0.314,1.113-0.314,1.799c0,0.678,0.102,1.267,0.309,1.773
					c0.209,0.51,0.502,0.896,0.887,1.166c0.385,0.266,0.834,0.404,1.352,0.404c0.785,0,1.412-0.297,1.875-0.893
					C497.881,786.692,498.115,785.872,498.115,784.831"/>
				<path style="fill:#5E4130;" d="M510.611,785.021v3.447c0,0.547-0.121,0.951-0.369,1.227c-0.25,0.273-0.572,0.408-0.978,0.408
					c-0.393,0-0.713-0.135-0.951-0.408c-0.246-0.275-0.371-0.68-0.371-1.227v-4.131c0-0.654-0.021-1.162-0.064-1.525
					c-0.045-0.354-0.168-0.654-0.361-0.883c-0.197-0.234-0.51-0.352-0.932-0.352c-0.85,0-1.406,0.291-1.676,0.881
					c-0.268,0.576-0.406,1.414-0.406,2.508v3.502c0,0.537-0.123,0.945-0.361,1.223c-0.25,0.273-0.568,0.412-0.965,0.412
					c-0.396,0-0.717-0.139-0.967-0.412c-0.252-0.277-0.377-0.686-0.377-1.223v-7.42c0-0.488,0.111-0.859,0.336-1.111
					c0.228-0.256,0.525-0.381,0.889-0.381c0.358,0,0.652,0.123,0.893,0.355c0.236,0.238,0.353,0.566,0.353,0.984v0.244
					c0.453-0.535,0.936-0.932,1.445-1.18c0.516-0.26,1.082-0.387,1.713-0.387c0.65,0,1.211,0.131,1.678,0.391
					c0.469,0.26,0.853,0.654,1.16,1.176c0.439-0.527,0.908-0.922,1.41-1.18c0.5-0.258,1.053-0.387,1.662-0.387
					c0.705,0,1.32,0.143,1.834,0.42c0.51,0.277,0.893,0.68,1.146,1.195c0.221,0.473,0.33,1.209,0.33,2.217v5.063
					c0,0.547-0.121,0.951-0.367,1.227c-0.246,0.273-0.574,0.408-0.979,0.408c-0.394,0-0.715-0.139-0.965-0.412
					c-0.25-0.277-0.377-0.686-0.377-1.223v-4.361c0-0.558-0.023-1.004-0.068-1.338c-0.047-0.338-0.178-0.621-0.383-0.848
					c-0.213-0.227-0.531-0.344-0.953-0.344c-0.342,0-0.666,0.107-0.975,0.309c-0.307,0.197-0.547,0.477-0.721,0.813
					C510.709,783.136,510.611,783.911,510.611,785.021"/>
			</g>
			<g>
				<path style="fill:#5E4130;" d="M389.906,784.202c-0.002-0.004-0.002-0.01-0.002-0.018
					C389.904,784.192,389.904,784.198,389.906,784.202z"/>
				<path style="fill:#5E4130;" d="M390.037,785.032c0.002,0,0.002,0,0.003,0c-0.05-0.236-0.089-0.471-0.118-0.703
					C389.951,784.563,389.99,784.798,390.037,785.032z"/>
				<path style="fill:#5E4130;" d="M390.895,787.438c-0.006-0.01-0.011-0.021-0.017-0.033
					C390.885,787.417,390.89,787.429,390.895,787.438z"/>
				<path style="fill:#5E4130;" d="M390.813,787.278c-0.022-0.045-0.044-0.09-0.065-0.135
					C390.77,787.19,390.791,787.233,390.813,787.278z"/>
				<path style="fill:#5E4130;" d="M390.278,785.958c0.127,0.4,0.28,0.789,0.457,1.158c-0.181-0.377-0.33-0.766-0.454-1.158
					C390.281,785.958,390.279,785.958,390.278,785.958z"/>
				<path style="fill:#5E4130;" d="M399.943,774.267c0.502,0,0.871,0.039,1.295,0.111l0.121-0.764c0,0-1.172-0.359-2.711-0.234
					l-0.121-0.414c0.479-0.102,0.838-0.527,0.838-1.035c0-0.582-0.475-1.053-1.057-1.053c-0.584,0-1.057,0.471-1.057,1.053
					c0,0.508,0.359,0.934,0.836,1.035l0.135,0.463c-1.635,0.225-2.936,0.861-2.936,0.861l0.23,0.705
					c0.988-0.328,1.846-0.529,2.624-0.613C398.903,774.302,399.477,774.267,399.943,774.267z"/>
				<path style="fill:#5E4130;" d="M390.876,778.124l0.006-0.008c0.038-0.049,0.075-0.096,0.113-0.143l-0.314-0.225l-0.487-0.357
					c-0.027,0.039-0.795,0.744-1.401,2.049c-0.025-0.041-0.056-0.082-0.09-0.119c-0.182-0.199-0.436-0.301-0.758-0.295
					c-0.004,0-0.01,0-0.016,0c-0.199,0-0.336-0.066-0.426-0.147c0.089-0.113,0.143-0.256,0.143-0.414c0-0.367-0.3-0.668-0.67-0.668
					c-0.368,0-0.668,0.301-0.668,0.668c0,0.371,0.3,0.67,0.668,0.67c0.059,0,0.113-0.01,0.168-0.021
					c0.164,0.184,0.425,0.342,0.807,0.334c0.197-0.002,0.342,0.049,0.438,0.156c0.111,0.121,0.148,0.295,0.16,0.428
					c-0.001,0.002-0.001,0.004-0.003,0.004c-0.436,1.19-0.312,2.67-0.312,2.67l1.058,0.043c0.021-0.539,0.099-1.482,0.372-2.23
					C390.189,779.069,390.85,778.163,390.876,778.124z"/>
				<path style="fill:#5E4130;" d="M409.143,775.149c-0.367,0-0.668,0.299-0.668,0.67c0,0.057,0.008,0.111,0.023,0.164
					c-0.184,0.166-0.344,0.428-0.338,0.81c0.004,0.197-0.047,0.34-0.154,0.438c-0.084,0.074-0.191,0.115-0.295,0.141
					c-0.787-1.103-1.756-1.775-1.756-1.775l-0.76,0.813c0.574,0.522,1.16,1.176,1.729,1.99c0.395,0.565,0.799,1.291,1.137,2.016
					l1.024-0.486c0,0-0.467-1.156-1.125-2.191c0.113-0.041,0.228-0.104,0.33-0.193c0.201-0.18,0.299-0.435,0.293-0.758
					c-0.002-0.207,0.066-0.348,0.148-0.441c0.115,0.088,0.258,0.143,0.412,0.143c0.371,0,0.67-0.299,0.67-0.668
					C409.813,775.448,409.514,775.149,409.143,775.149z"/>
				<path style="fill:#5E4130;" d="M406.486,784.352c-1.41,0.686-3.729,1.594-6.781,2.02c-1.199,0.166-2.359,0.227-3.429,0.227
					c-1.391,0-2.62-0.103-3.563-0.223c-1.076-0.135-1.917-0.301-2.433-0.418c0.124,0.393,0.273,0.781,0.454,1.158
					c0.003,0.01,0.008,0.021,0.013,0.027c0.022,0.045,0.043,0.09,0.065,0.135c0.022,0.043,0.043,0.086,0.065,0.127
					c0.006,0.012,0.011,0.023,0.017,0.033c0.303,0.57,0.667,1.094,1.081,1.549c1.439,1.574,2.906,1.824,2.92,1.826l0.023,0.002
					l0.021,0.008c0.014,0.006,1.315,0.426,3.291,0.426c1.945,0,3.855-0.393,5.674-1.168c1.348-0.69,2.623-1.736,3.254-2.67
					c0.488-0.723,0.842-1.492,1.051-2.293c0.111-0.426,0.199-1.108,0.147-1.826C407.961,783.56,407.334,783.938,406.486,784.352z"/>
				<path style="fill:#5E4130;" d="M391.328,778.458c-0.041,0.061-0.652,0.926-1.135,2.254c-0.361,0.994-0.346,2.443-0.346,2.459
					v0.004c0,0.34,0.02,0.676,0.057,1.01c0,0.008,0,0.014,0.002,0.018c0.004,0.043,0.012,0.084,0.016,0.127
					c0.029,0.232,0.068,0.467,0.118,0.703c0.7,0.178,4.878,1.152,9.548,0.502c2.928-0.408,5.15-1.273,6.5-1.928
					c1.121-0.543,1.842-1.035,2.119-1.238c-0.277-1.027-1.041-2.641-1.742-3.647c-2.006-2.865-4.168-3.6-5.277-3.783
					c-0.424-0.068-0.764-0.109-1.244-0.109c-0.447,0-1.002,0.037-1.742,0.115c-0.744,0.076-1.572,0.272-2.533,0.596
					c-1.348,0.451-2.566,1.158-3.526,2.047l-0.032,0.031C391.967,777.749,391.67,778.024,391.328,778.458z M403.598,777.792
					c0.961,0,1.744,0.781,1.744,1.742c0,0.963-0.783,1.744-1.744,1.744c-0.961,0-1.742-0.781-1.742-1.744
					C401.855,778.573,402.637,777.792,403.598,777.792z M395.356,777.722c1.557,0,2.817,1.262,2.817,2.818
					c0,1.555-1.261,2.815-2.817,2.815c-1.555,0-2.815-1.26-2.815-2.815C392.541,778.983,393.802,777.722,395.356,777.722z"/>
			</g>
		</g>
	</g>
	<g style="opacity:0.3;">
		<g>
			
				<polyline style="fill:none;stroke:#FFFFFF;stroke-width:2;stroke-linecap:round;stroke-linejoin:round;stroke-miterlimit:10;stroke-dasharray:2,7;" points="
				297.923,535.018 293.073,422.518 293.073,252.907 			"/>
			
				<polyline style="fill:none;stroke:#FFFFFF;stroke-width:2;stroke-linecap:round;stroke-linejoin:round;stroke-miterlimit:10;stroke-dasharray:2,7;" points="
				401.505,551.449 401.505,235.337 349.87,234.837 349.87,165 			"/>
			
				<polyline style="fill:none;stroke:#FFFFFF;stroke-width:2;stroke-linecap:round;stroke-linejoin:round;stroke-miterlimit:10;stroke-dasharray:2,7;" points="
				503.828,539.609 506.895,216.408 440.5,216.408 440.5,171.448 			"/>
			
				<polyline style="fill:none;stroke:#FFFFFF;stroke-width:2;stroke-linecap:round;stroke-linejoin:round;stroke-miterlimit:10;stroke-dasharray:2,7;" points="
				418.383,556.911 414.764,432.847 444.416,432.852 444.416,315.505 			"/>
			
				<polyline style="fill:none;stroke:#FFFFFF;stroke-width:2;stroke-linecap:round;stroke-linejoin:round;stroke-miterlimit:10;stroke-dasharray:2,7;" points="
				202.313,543.896 202.313,386.493 156.099,386.493 156.099,289.808 			"/>
			
				<polyline style="fill:none;stroke:#FFFFFF;stroke-width:2;stroke-linecap:round;stroke-linejoin:round;stroke-miterlimit:10;stroke-dasharray:2,7;" points="
				621.093,340 563.435,340 562.227,501.532 349.87,501.532 349.87,535.938 			"/>
		</g>
		
			<path style="fill:none;stroke:#FFFFFF;stroke-width:2;stroke-linecap:round;stroke-linejoin:round;stroke-miterlimit:10;stroke-dasharray:2,7;" d="
			M293.073,495.664"/>
		
			<polyline style="fill:none;stroke:#FFFFFF;stroke-width:2;stroke-linecap:round;stroke-linejoin:round;stroke-miterlimit:10;stroke-dasharray:2,7;" points="
			229,187.347 228.75,300.074 292.823,300.074 		"/>
		
			<line style="fill:none;stroke:#FFFFFF;stroke-width:2;stroke-linecap:round;stroke-linejoin:round;stroke-miterlimit:10;stroke-dasharray:2,7;" x1="351.009" y1="336.833" x2="351.009" y2="477.083"/>
		
			<line style="fill:none;stroke:#FFFFFF;stroke-width:2;stroke-linecap:round;stroke-linejoin:round;stroke-miterlimit:10;stroke-dasharray:2,7;" x1="638.606" y1="242.549" x2="505.04" y2="242.549"/>
		
			<line style="fill:none;stroke:#FFFFFF;stroke-width:2;stroke-linecap:round;stroke-linejoin:round;stroke-miterlimit:10;stroke-dasharray:2,7;" x1="563.214" y1="315.505" x2="563.214" y2="334.5"/>
		
			<line style="fill:none;stroke:#FFFFFF;stroke-width:2;stroke-linecap:round;stroke-linejoin:round;stroke-miterlimit:10;stroke-dasharray:2,7;" x1="602.833" y1="169" x2="602.833" y2="239.439"/>
		
			<line style="fill:none;stroke:#FFFFFF;stroke-width:2;stroke-linecap:round;stroke-linejoin:round;stroke-miterlimit:10;stroke-dasharray:2,7;" x1="535.449" y1="193.5" x2="535.449" y2="242.549"/>
		
			<line style="fill:none;stroke:#FFFFFF;stroke-width:2;stroke-linecap:round;stroke-linejoin:round;stroke-miterlimit:10;stroke-dasharray:2,7;" x1="225.388" y1="374" x2="225.388" y2="436.888"/>
	</g>
	<g>
		<path style="fill:none;stroke:#081928;stroke-width:30;stroke-miterlimit:10;" d="M689.033,581.612
			c37.654,0,53.496,82.475-2.525,82.475c-56.02,0-474.241,0-543.903,0c-69.663,0-65.204-91.463-5.51-91.463
			C196.788,572.624,651.381,581.612,689.033,581.612z"/>
		<path style="opacity:0.4;fill:none;stroke:#F1E4C4;stroke-width:3;stroke-miterlimit:10;stroke-dasharray:7;" d="M689.033,581.612
			c37.654,0,53.496,82.475-2.525,82.475c-56.02,0-474.241,0-543.903,0c-69.663,0-65.204-91.463-5.51-91.463
			C196.788,572.624,651.381,581.612,689.033,581.612z"/>
	</g>
	<g>
		<g>
			<polygon style="fill:#EE7922;" points="370.806,517.748 320.788,517.748 320.788,391.894 370.806,382.104 			"/>
			<g style="opacity:0.2;">
				<g>
					<rect x="331.526" y="408.513" width="10.198" height="10.196"/>
					<rect x="349.87" y="408.513" width="10.196" height="10.196"/>
				</g>
				<g>
					<rect x="331.526" y="425.031" width="10.198" height="10.197"/>
					<rect x="349.87" y="425.031" width="10.198" height="10.197"/>
				</g>
				<g>
					<rect x="331.526" y="441.551" width="10.198" height="10.195"/>
					<rect x="349.87" y="441.551" width="10.196" height="10.195"/>
				</g>
				<g>
					<rect x="331.526" y="458.068" width="10.198" height="10.199"/>
					<rect x="349.87" y="458.068" width="10.196" height="10.199"/>
				</g>
				<g>
					<rect x="331.526" y="474.588" width="10.198" height="10.197"/>
					<rect x="349.87" y="474.588" width="10.196" height="10.197"/>
				</g>
				<g>
					<rect x="338.529" y="499.508" width="16.009" height="18.24"/>
				</g>
			</g>
		</g>
		<g>
			<polygon style="fill:#EFA730;" points="592.08,394.056 592.08,359.272 548.348,367.832 548.348,402.615 537.473,404.743 
				537.473,549.518 602.957,549.518 602.957,391.927 			"/>
			<g style="opacity:0.2;">
				<g>
					<rect x="559.734" y="525.635" width="20.959" height="23.883"/>
				</g>
				<g>
					<g>
						<rect x="547.865" y="438.52" width="19.184" height="6.701"/>
						<rect x="547.865" y="449.375" width="19.184" height="6.703"/>
						<rect x="547.865" y="460.232" width="19.184" height="6.701"/>
						<rect x="547.865" y="416.805" width="19.184" height="6.701"/>
						<rect x="547.865" y="427.662" width="19.184" height="6.701"/>
						<rect x="547.865" y="471.09" width="19.184" height="6.701"/>
						<rect x="547.865" y="503.66" width="19.184" height="6.703"/>
						<polygon points="547.865,488.648 547.865,488.648 567.049,488.648 567.049,488.648 567.049,481.947 547.865,481.947 						"/>
						<rect x="547.865" y="492.805" width="19.184" height="6.701"/>
					</g>
					<g>
						<rect x="574.115" y="438.52" width="19.184" height="6.701"/>
						<rect x="574.115" y="449.375" width="19.184" height="6.703"/>
						<rect x="574.115" y="460.232" width="19.184" height="6.701"/>
						<rect x="574.115" y="416.805" width="19.184" height="6.701"/>
						<rect x="574.115" y="427.662" width="19.184" height="6.701"/>
						<rect x="574.115" y="471.09" width="19.184" height="6.701"/>
						<rect x="574.115" y="503.66" width="19.184" height="6.703"/>
						<polygon points="574.115,488.648 574.115,488.648 593.299,488.648 593.299,488.648 593.299,481.947 574.115,481.947 						"/>
						<rect x="574.115" y="492.805" width="19.184" height="6.701"/>
					</g>
				</g>
			</g>
		</g>
		<g>
			<polygon style="fill:#EFA730;" points="298.644,399.929 298.644,365.146 254.911,373.706 254.911,408.488 244.035,410.617 
				244.035,555.391 309.52,555.391 309.52,397.8 			"/>
			<g style="opacity:0.2;">
				<g>
					<rect x="266.298" y="531.51" width="20.959" height="23.881"/>
				</g>
				<g>
					<g>
						<rect x="251.428" y="444.393" width="9.701" height="6.703"/>
						<rect x="251.428" y="455.25" width="9.701" height="6.701"/>
						<rect x="251.428" y="466.107" width="9.701" height="6.701"/>
						<rect x="251.428" y="422.68" width="9.701" height="6.701"/>
						<rect x="251.428" y="433.537" width="9.701" height="6.701"/>
						<rect x="251.428" y="476.965" width="9.701" height="6.701"/>
						<rect x="251.428" y="509.535" width="9.701" height="6.701"/>
						<polygon points="251.428,494.522 251.428,494.523 261.129,494.523 261.129,494.522 261.129,487.82 251.428,487.82 						"/>
						<rect x="251.428" y="498.678" width="9.701" height="6.701"/>
					</g>
					<g>
						<rect x="264.702" y="444.393" width="9.701" height="6.702"/>
						<rect x="264.702" y="455.249" width="9.701" height="6.702"/>
						<rect x="264.702" y="466.106" width="9.701" height="6.701"/>
						<rect x="264.702" y="422.679" width="9.701" height="6.701"/>
						<rect x="264.702" y="433.536" width="9.701" height="6.701"/>
						<rect x="264.702" y="476.964" width="9.701" height="6.701"/>
						<rect x="264.702" y="509.534" width="9.701" height="6.702"/>
						<polygon points="264.702,494.522 264.702,494.522 274.403,494.522 274.403,494.522 274.403,487.82 264.702,487.82 						"/>
						<rect x="264.702" y="498.678" width="9.701" height="6.701"/>
					</g>
				</g>
				<g>
					<g>
						<rect x="278.798" y="444.393" width="9.701" height="6.702"/>
						<rect x="278.798" y="455.249" width="9.701" height="6.702"/>
						<rect x="278.798" y="466.106" width="9.701" height="6.701"/>
						<rect x="278.798" y="422.679" width="9.701" height="6.701"/>
						<rect x="278.798" y="433.536" width="9.701" height="6.701"/>
						<rect x="278.798" y="476.964" width="9.701" height="6.701"/>
						<rect x="278.798" y="509.534" width="9.701" height="6.702"/>
						<polygon points="278.798,494.522 278.798,494.522 288.499,494.522 288.499,494.522 288.499,487.82 278.798,487.82 						"/>
						<rect x="278.798" y="498.678" width="9.701" height="6.701"/>
					</g>
					<g>
						<rect x="292.073" y="444.393" width="9.701" height="6.701"/>
						<rect x="292.073" y="455.248" width="9.701" height="6.703"/>
						<rect x="292.073" y="466.105" width="9.701" height="6.701"/>
						<rect x="292.073" y="422.678" width="9.701" height="6.701"/>
						<rect x="292.073" y="433.535" width="9.701" height="6.701"/>
						<rect x="292.073" y="476.963" width="9.701" height="6.701"/>
						<rect x="292.073" y="509.533" width="9.701" height="6.703"/>
						<polygon points="292.073,494.522 292.073,494.522 301.774,494.522 301.774,494.522 301.774,487.82 292.073,487.82 						"/>
						<rect x="292.073" y="498.678" width="9.701" height="6.701"/>
					</g>
				</g>
			</g>
		</g>
		<g>
			<polygon style="fill:#5E4130;" points="665.833,443.938 665.833,399.059 617.159,408.586 617.159,453.465 608.46,455.167 
				608.46,649.202 673.946,649.202 673.946,442.35 			"/>
			<g style="opacity:0.2;">
				<g>
					<rect x="615.685" y="495.646" width="8.816" height="6.703"/>
					<rect x="615.685" y="506.503" width="8.816" height="6.701"/>
					<rect x="615.685" y="517.36" width="8.816" height="6.701"/>
					<rect x="615.685" y="473.933" width="8.816" height="6.701"/>
					<rect x="615.685" y="484.79" width="8.816" height="6.701"/>
					<rect x="615.685" y="528.218" width="8.816" height="6.701"/>
					<rect x="615.685" y="560.788" width="8.816" height="6.701"/>
					<rect x="615.685" y="571.644" width="8.816" height="6.703"/>
					<rect x="615.685" y="582.501" width="8.816" height="6.701"/>
					<polygon points="615.685,545.774 615.685,545.776 624.501,545.776 624.501,545.774 624.501,539.073 615.685,539.073 					"/>
					<rect x="615.685" y="549.931" width="8.816" height="6.701"/>
					<rect x="615.685" y="593.358" width="8.816" height="6.701"/>
					<rect x="615.685" y="604.216" width="8.816" height="6.701"/>
				</g>
				<g>
					<rect x="629.794" y="495.646" width="8.818" height="6.703"/>
					<rect x="629.794" y="506.503" width="8.818" height="6.701"/>
					<rect x="629.794" y="517.36" width="8.818" height="6.701"/>
					<rect x="629.794" y="473.933" width="8.818" height="6.701"/>
					<rect x="629.794" y="484.79" width="8.818" height="6.701"/>
					<rect x="629.794" y="528.218" width="8.818" height="6.701"/>
					<rect x="629.794" y="560.788" width="8.818" height="6.701"/>
					<rect x="629.794" y="571.644" width="8.818" height="6.703"/>
					<rect x="629.794" y="582.501" width="8.818" height="6.701"/>
					<polygon points="629.794,545.774 629.794,545.776 638.612,545.776 638.612,545.774 638.612,539.073 629.794,539.073 					"/>
					<rect x="629.794" y="549.931" width="8.818" height="6.701"/>
					<rect x="629.794" y="593.358" width="8.818" height="6.701"/>
					<rect x="629.794" y="604.216" width="8.818" height="6.701"/>
				</g>
				<g>
					<rect x="643.905" y="495.646" width="8.816" height="6.703"/>
					<rect x="643.905" y="506.503" width="8.816" height="6.701"/>
					<rect x="643.905" y="517.36" width="8.816" height="6.701"/>
					<rect x="643.905" y="473.933" width="8.816" height="6.701"/>
					<rect x="643.905" y="484.79" width="8.816" height="6.701"/>
					<rect x="643.905" y="528.218" width="8.816" height="6.701"/>
					<rect x="643.905" y="560.788" width="8.816" height="6.701"/>
					<rect x="643.905" y="571.644" width="8.816" height="6.703"/>
					<rect x="643.905" y="582.501" width="8.816" height="6.701"/>
					<polygon points="643.905,545.774 643.905,545.776 652.722,545.776 652.722,545.774 652.722,539.073 643.905,539.073 					"/>
					<rect x="643.905" y="549.931" width="8.816" height="6.701"/>
					<rect x="643.905" y="593.358" width="8.816" height="6.701"/>
					<rect x="643.905" y="604.216" width="8.816" height="6.701"/>
				</g>
				<g>
					<rect x="629.739" y="439.047" width="8.818" height="6.703"/>
					<rect x="629.739" y="449.903" width="8.818" height="6.703"/>
					<rect x="629.739" y="417.334" width="8.818" height="6.701"/>
					<rect x="629.739" y="428.191" width="8.818" height="6.701"/>
				</g>
				<g>
					<rect x="643.851" y="439.047" width="8.816" height="6.703"/>
					<rect x="643.851" y="449.903" width="8.816" height="6.703"/>
					<rect x="643.851" y="417.334" width="8.816" height="6.701"/>
					<rect x="643.851" y="428.191" width="8.816" height="6.701"/>
				</g>
				<g>
					<rect x="658.017" y="495.646" width="8.816" height="6.703"/>
					<rect x="658.017" y="506.503" width="8.816" height="6.701"/>
					<rect x="658.017" y="517.36" width="8.816" height="6.701"/>
					<rect x="658.017" y="473.933" width="8.816" height="6.701"/>
					<rect x="658.017" y="484.79" width="8.816" height="6.701"/>
					<rect x="658.017" y="528.218" width="8.816" height="6.701"/>
					<rect x="658.017" y="560.788" width="8.816" height="6.701"/>
					<rect x="658.017" y="571.644" width="8.816" height="6.703"/>
					<rect x="658.017" y="582.501" width="8.816" height="6.701"/>
					<polygon points="658.017,545.774 658.017,545.776 666.833,545.776 666.833,545.774 666.833,539.073 658.017,539.073 					"/>
					<rect x="658.017" y="549.931" width="8.816" height="6.701"/>
					<rect x="658.017" y="593.358" width="8.816" height="6.701"/>
					<rect x="658.017" y="604.216" width="8.816" height="6.701"/>
				</g>
				<g>
					<rect x="631.686" y="622.804" width="20.961" height="26.398"/>
				</g>
			</g>
		</g>
		<g>
			<polygon style="fill:#EE7922;" points="517.707,382.753 517.707,347.97 473.975,356.53 473.975,391.312 463.098,393.441 
				463.098,538.214 528.582,538.214 528.582,380.625 			"/>
			<g style="opacity:0.2;">
				<g>
					<rect x="485.361" y="514.333" width="20.959" height="23.881"/>
				</g>
				<g>
					<rect x="477.207" y="415.255" width="38.109" height="5.063"/>
					<rect x="477.207" y="423.456" width="38.109" height="5.064"/>
					<rect x="477.207" y="431.659" width="38.109" height="5.064"/>
					<rect x="477.207" y="398.849" width="38.109" height="5.063"/>
					<rect x="477.207" y="407.053" width="38.109" height="5.062"/>
					<rect x="477.207" y="439.862" width="38.109" height="5.064"/>
					<rect x="477.207" y="464.47" width="38.109" height="5.064"/>
					<rect x="477.207" y="472.673" width="38.109" height="5.063"/>
					<rect x="477.207" y="480.876" width="38.109" height="5.063"/>
					<polygon points="477.207,453.128 477.207,453.13 515.316,453.13 515.316,453.128 515.316,448.065 477.207,448.065 					"/>
					<rect x="477.207" y="456.269" width="38.109" height="5.063"/>
					<rect x="477.207" y="489.079" width="38.109" height="5.063"/>
					<rect x="477.207" y="497.28" width="38.109" height="5.064"/>
				</g>
				<g>
					<rect x="485.361" y="379.67" style="fill:#5E4130;" width="23.109" height="5.063"/>
					<rect x="485.361" y="363.265" width="23.109" height="5.063"/>
					<rect x="485.361" y="371.468" width="23.109" height="5.063"/>
				</g>
			</g>
		</g>
		<g>
			<g>
				<g>
					<polygon style="fill:#EFA730;" points="690.584,649.13 625.098,649.13 625.098,592.798 658.805,574.97 690.584,592.398 					
						"/>
				</g>
			</g>
			<g style="opacity:0.2;">
				<g>
					<rect x="639.158" y="603.624" width="13.35" height="13.35"/>
					<rect x="663.174" y="603.624" width="13.35" height="13.35"/>
				</g>
				<g>
					<rect x="648.324" y="625.25" width="20.961" height="23.88"/>
				</g>
			</g>
		</g>
		<g>
			<g>
				<g>
					<g>
						<polygon style="fill:#5E4130;" points="449.95,611.66 384.464,611.66 384.464,417.625 449.95,404.809 						"/>
					</g>
				</g>
			</g>
			<g>
				<g>
					<g>
						<polygon style="fill:#5E4130;" points="441.836,515.264 393.162,515.264 393.162,371.044 441.836,361.518 						"/>
					</g>
				</g>
			</g>
			<g style="opacity:0.2;">
				<g>
					<rect x="391.688" y="458.104" width="8.817" height="6.702"/>
					<rect x="391.688" y="468.961" width="8.817" height="6.702"/>
					<rect x="391.688" y="479.818" width="8.817" height="6.701"/>
					<rect x="391.688" y="436.391" width="8.817" height="6.701"/>
					<rect x="391.688" y="447.248" width="8.817" height="6.701"/>
					<rect x="391.688" y="490.676" width="8.817" height="6.701"/>
					<rect x="391.688" y="523.246" width="8.817" height="6.702"/>
					<rect x="391.688" y="534.102" width="8.817" height="6.702"/>
					<rect x="391.688" y="544.96" width="8.817" height="6.701"/>
					<polygon points="391.688,508.233 391.688,508.234 400.505,508.234 400.505,508.233 400.505,501.532 391.688,501.532 					"/>
					<rect x="391.688" y="512.39" width="8.817" height="6.701"/>
					<rect x="391.688" y="555.817" width="8.817" height="6.701"/>
					<rect x="391.688" y="566.674" width="8.817" height="6.702"/>
				</g>
				<g>
					<rect x="405.799" y="458.104" width="8.816" height="6.702"/>
					<rect x="405.799" y="468.961" width="8.816" height="6.702"/>
					<rect x="405.799" y="479.818" width="8.816" height="6.701"/>
					<rect x="405.799" y="436.391" width="8.816" height="6.701"/>
					<rect x="405.799" y="447.248" width="8.816" height="6.701"/>
					<rect x="405.799" y="490.676" width="8.816" height="6.701"/>
					<rect x="405.799" y="523.246" width="8.816" height="6.702"/>
					<rect x="405.799" y="534.102" width="8.816" height="6.702"/>
					<rect x="405.799" y="544.96" width="8.816" height="6.701"/>
					<polygon points="405.799,508.233 405.799,508.234 414.615,508.234 414.615,508.233 414.615,501.532 405.799,501.532 					"/>
					<rect x="405.799" y="512.39" width="8.816" height="6.701"/>
					<rect x="405.799" y="555.817" width="8.816" height="6.701"/>
					<rect x="405.799" y="566.674" width="8.816" height="6.702"/>
				</g>
				<g>
					<rect x="419.909" y="458.104" width="8.816" height="6.702"/>
					<rect x="419.909" y="468.961" width="8.816" height="6.702"/>
					<rect x="419.909" y="479.818" width="8.816" height="6.701"/>
					<rect x="419.909" y="436.391" width="8.816" height="6.701"/>
					<rect x="419.909" y="447.248" width="8.816" height="6.701"/>
					<rect x="419.909" y="490.676" width="8.816" height="6.701"/>
					<rect x="419.909" y="523.246" width="8.816" height="6.702"/>
					<rect x="419.909" y="534.102" width="8.816" height="6.702"/>
					<rect x="419.909" y="544.96" width="8.816" height="6.701"/>
					<polygon points="419.909,508.233 419.909,508.234 428.726,508.234 428.726,508.233 428.726,501.532 419.909,501.532 					"/>
					<rect x="419.909" y="512.39" width="8.816" height="6.701"/>
					<rect x="419.909" y="555.817" width="8.816" height="6.701"/>
					<rect x="419.909" y="566.674" width="8.816" height="6.702"/>
				</g>
				<g>
					<rect x="405.744" y="401.506" width="8.816" height="6.702"/>
					<rect x="405.744" y="412.362" width="8.816" height="6.702"/>
					<rect x="405.744" y="379.792" width="8.816" height="6.701"/>
					<rect x="405.744" y="390.649" width="8.816" height="6.701"/>
				</g>
				<g>
					<rect x="419.854" y="401.506" width="8.816" height="6.702"/>
					<rect x="419.854" y="412.362" width="8.816" height="6.702"/>
					<rect x="419.854" y="379.792" width="8.816" height="6.701"/>
					<rect x="419.854" y="390.649" width="8.816" height="6.701"/>
				</g>
				<g>
					<rect x="434.02" y="458.104" width="8.816" height="6.702"/>
					<rect x="434.02" y="468.961" width="8.816" height="6.702"/>
					<rect x="434.02" y="479.818" width="8.816" height="6.701"/>
					<rect x="434.02" y="436.391" width="8.816" height="6.701"/>
					<rect x="434.02" y="447.248" width="8.816" height="6.701"/>
					<rect x="434.02" y="490.676" width="8.816" height="6.701"/>
					<rect x="434.02" y="523.246" width="8.816" height="6.702"/>
					<rect x="434.02" y="534.102" width="8.816" height="6.702"/>
					<rect x="434.02" y="544.96" width="8.816" height="6.701"/>
					<polygon points="434.02,508.233 434.02,508.234 442.836,508.234 442.836,508.233 442.836,501.532 434.02,501.532 					"/>
					<rect x="434.02" y="512.39" width="8.816" height="6.701"/>
					<rect x="434.02" y="555.817" width="8.816" height="6.701"/>
					<rect x="434.02" y="566.674" width="8.816" height="6.702"/>
				</g>
				<g>
					<rect x="407.69" y="585.262" width="20.961" height="26.399"/>
				</g>
			</g>
		</g>
		<g>
			<polygon style="fill:#5E4130;" points="225.388,443.939 225.388,399.06 176.714,408.585 176.714,453.465 168.016,455.167 
				168.016,649.201 233.502,649.201 233.502,442.351 			"/>
			<g style="opacity:0.2;">
				<g>
					<rect x="176.24" y="491.646" width="50.148" height="6.703"/>
					<rect x="176.24" y="502.503" width="50.148" height="6.701"/>
					<rect x="176.24" y="513.36" width="50.148" height="6.701"/>
					<rect x="176.24" y="469.933" width="50.148" height="6.701"/>
					<rect x="176.24" y="480.79" width="50.148" height="6.701"/>
					<rect x="176.24" y="524.218" width="50.148" height="6.701"/>
					<rect x="176.24" y="556.788" width="50.148" height="6.701"/>
					<rect x="176.24" y="567.644" width="50.148" height="6.703"/>
					<rect x="176.24" y="578.501" width="50.148" height="6.701"/>
					<polygon points="176.24,541.774 176.24,541.776 226.388,541.776 226.388,541.774 226.388,535.073 176.24,535.073 					"/>
					<rect x="176.24" y="545.931" width="50.148" height="6.701"/>
					<rect x="176.24" y="589.358" width="50.148" height="6.702"/>
					<rect x="176.24" y="600.215" width="50.148" height="6.703"/>
				</g>
				<g>
					<rect x="189.295" y="439.048" width="23.15" height="6.701"/>
					<rect x="189.295" y="449.903" width="23.15" height="6.703"/>
					<rect x="189.295" y="417.333" width="23.15" height="6.701"/>
					<rect x="189.295" y="428.19" width="23.15" height="6.701"/>
				</g>
				<g>
					<rect x="192.242" y="622.803" width="20.961" height="26.399"/>
				</g>
			</g>
		</g>
		<g>
			<g>
				<g>
					<g>
						<polygon style="fill:#5E4130;" points="333.637,649.22 268.15,649.22 268.15,455.185 333.637,442.368 						"/>
					</g>
				</g>
			</g>
			<g style="opacity:0.2;">
				<g>
					<rect x="282.589" y="482.355" width="38.109" height="5.063"/>
					<rect x="282.589" y="490.558" width="38.109" height="5.063"/>
					<rect x="282.589" y="498.761" width="38.109" height="5.063"/>
					<rect x="282.589" y="465.95" width="38.109" height="5.063"/>
					<rect x="282.589" y="474.153" width="38.109" height="5.063"/>
					<rect x="282.589" y="506.964" width="38.109" height="5.063"/>
					<rect x="282.589" y="531.571" width="38.109" height="5.063"/>
					<rect x="282.589" y="539.773" width="38.109" height="5.063"/>
					<rect x="282.589" y="547.977" width="38.109" height="5.063"/>
					<polygon points="282.589,520.229 282.589,520.231 320.698,520.231 320.698,520.229 320.698,515.166 282.589,515.166 					"/>
					<rect x="282.589" y="523.369" width="38.109" height="5.063"/>
					<rect x="282.589" y="556.18" width="38.109" height="5.063"/>
					<rect x="282.589" y="564.382" width="38.109" height="5.063"/>
				</g>
				<g>
					<rect x="282.589" y="572.585" width="38.109" height="5.063"/>
					<rect x="282.589" y="580.787" width="38.109" height="5.063"/>
					<rect x="282.589" y="588.99" width="38.109" height="5.063"/>
					<rect x="282.589" y="597.193" width="38.109" height="5.063"/>
					<rect x="282.589" y="605.396" width="38.109" height="5.063"/>
				</g>
				<g>
					<rect x="291.377" y="622.821" width="20.961" height="26.398"/>
				</g>
			</g>
		</g>
		<g>
			<polygon style="fill:#EE7922;" points="292.176,649.221 226.691,649.221 226.691,504.446 292.176,491.63 			"/>
			<g style="opacity:0.2;">
				<g>
					<rect x="240.75" y="517.204" width="13.352" height="13.35"/>
					<rect x="264.766" y="517.204" width="13.35" height="13.35"/>
				</g>
				<g>
					<rect x="240.75" y="538.831" width="13.352" height="13.35"/>
					<rect x="264.766" y="538.831" width="13.352" height="13.35"/>
				</g>
				<g>
					<rect x="240.75" y="560.458" width="13.352" height="13.35"/>
					<rect x="264.766" y="560.458" width="13.35" height="13.35"/>
				</g>
				<g>
					<rect x="240.75" y="582.085" width="13.352" height="13.351"/>
					<rect x="264.766" y="582.085" width="13.35" height="13.351"/>
				</g>
				<g>
					<rect x="240.75" y="603.712" width="13.352" height="13.352"/>
					<rect x="264.766" y="603.712" width="13.35" height="13.352"/>
				</g>
				<g>
					<rect x="249.918" y="625.339" width="20.959" height="23.882"/>
				</g>
			</g>
		</g>
		<g>
			<polygon style="fill:#5E4130;" points="582.949,649.2 517.465,649.2 517.465,484.428 582.949,471.611 			"/>
			<g style="opacity:0.2;">
				<g>
					<rect x="531.523" y="506.185" width="13.352" height="13.35"/>
					<rect x="555.539" y="506.185" width="13.35" height="13.35"/>
				</g>
				<g>
					<rect x="531.523" y="527.813" width="13.352" height="13.35"/>
					<rect x="555.539" y="527.813" width="13.351" height="13.35"/>
				</g>
				<g>
					<rect x="531.523" y="549.44" width="13.352" height="13.35"/>
					<rect x="555.539" y="549.44" width="13.35" height="13.35"/>
				</g>
				<g>
					<rect x="531.523" y="571.066" width="13.352" height="13.352"/>
					<rect x="555.539" y="571.066" width="13.35" height="13.352"/>
				</g>
				<g>
					<rect x="531.523" y="592.693" width="13.352" height="13.351"/>
					<rect x="555.539" y="592.693" width="13.35" height="13.351"/>
				</g>
				<g>
					<rect x="540.691" y="625.319" width="20.959" height="23.881"/>
				</g>
			</g>
		</g>
		<g>
			<polygon style="fill:#EE7922;" points="409.875,649.22 344.391,649.22 344.391,484.447 409.875,471.631 			"/>
			<g style="opacity:0.2;">
				<g>
					<rect x="358.449" y="506.205" width="13.352" height="13.35"/>
					<rect x="382.465" y="506.205" width="13.35" height="13.35"/>
				</g>
				<g>
					<rect x="358.449" y="527.832" width="13.352" height="13.35"/>
					<rect x="382.465" y="527.832" width="13.352" height="13.35"/>
				</g>
				<g>
					<rect x="358.449" y="549.459" width="13.352" height="13.35"/>
					<rect x="382.465" y="549.459" width="13.35" height="13.35"/>
				</g>
				<g>
					<rect x="358.449" y="571.086" width="13.352" height="13.352"/>
					<rect x="382.465" y="571.086" width="13.35" height="13.352"/>
				</g>
				<g>
					<rect x="358.449" y="592.712" width="13.352" height="13.352"/>
					<rect x="382.465" y="592.712" width="13.35" height="13.352"/>
				</g>
				<g>
					<rect x="367.617" y="625.339" width="20.959" height="23.881"/>
				</g>
			</g>
		</g>
		<g>
			<polygon style="fill:#5E4130;" points="497.713,493.891 497.713,459.107 453.98,467.668 453.98,502.449 443.103,504.578 
				443.103,649.352 508.588,649.352 508.588,491.762 			"/>
			<g style="opacity:0.2;">
				<g>
					<rect x="465.367" y="625.472" width="20.959" height="23.881"/>
				</g>
				<g>
					<g>
						<rect x="453.496" y="538.356" width="19.185" height="6.701"/>
						<rect x="453.496" y="549.211" width="19.185" height="6.703"/>
						<rect x="453.496" y="560.068" width="19.185" height="6.701"/>
						<rect x="453.496" y="516.641" width="19.185" height="6.701"/>
						<rect x="453.496" y="527.498" width="19.185" height="6.701"/>
						<rect x="453.496" y="570.926" width="19.185" height="6.701"/>
						<rect x="453.496" y="603.496" width="19.185" height="6.702"/>
						<polygon points="453.496,588.484 453.496,588.484 472.682,588.484 472.682,588.484 472.682,581.783 453.496,581.783 						"/>
						<rect x="453.496" y="592.641" width="19.185" height="6.701"/>
					</g>
					<g>
						<rect x="479.746" y="538.354" width="19.185" height="6.702"/>
						<rect x="479.746" y="549.211" width="19.185" height="6.702"/>
						<rect x="479.746" y="560.068" width="19.185" height="6.701"/>
						<rect x="479.746" y="516.641" width="19.185" height="6.701"/>
						<rect x="479.746" y="527.498" width="19.185" height="6.701"/>
						<rect x="479.746" y="570.926" width="19.185" height="6.701"/>
						<rect x="479.746" y="603.496" width="19.185" height="6.702"/>
						<polygon points="479.746,588.483 479.746,588.484 498.932,588.484 498.932,588.483 498.932,581.782 479.746,581.782 						"/>
						<rect x="479.746" y="592.64" width="19.185" height="6.701"/>
					</g>
				</g>
			</g>
		</g>
		<g>
			<polygon style="fill:#EE7922;" points="609.492,541.739 609.492,506.956 565.76,515.516 565.76,550.299 554.885,552.427 
				554.885,649.202 620.369,649.202 620.369,539.61 			"/>
			<g style="opacity:0.2;">
				<g>
					<rect x="575.332" y="625.329" width="24.59" height="23.883"/>
				</g>
				<g>
					<rect x="569.107" y="579.87" width="8.818" height="6.702"/>
					<rect x="569.107" y="590.727" width="8.818" height="6.702"/>
					<rect x="569.107" y="601.584" width="8.818" height="6.701"/>
					<rect x="569.107" y="558.156" width="8.818" height="6.701"/>
					<rect x="569.107" y="569.014" width="8.818" height="6.701"/>
					<rect x="569.107" y="612.441" width="8.818" height="6.701"/>
				</g>
				<g>
					<rect x="583.219" y="579.87" width="8.816" height="6.702"/>
					<rect x="583.219" y="590.727" width="8.816" height="6.702"/>
					<rect x="583.219" y="601.584" width="8.816" height="6.701"/>
					<rect x="583.219" y="558.156" width="8.816" height="6.701"/>
					<rect x="583.219" y="569.014" width="8.816" height="6.701"/>
					<rect x="583.219" y="612.441" width="8.816" height="6.701"/>
				</g>
				<g>
					<rect x="576.164" y="522.967" width="8.816" height="6.701"/>
					<rect x="576.164" y="533.824" width="8.816" height="6.701"/>
				</g>
				<g>
					<rect x="590.275" y="522.967" width="8.816" height="6.701"/>
					<rect x="590.275" y="533.824" width="8.816" height="6.701"/>
				</g>
				<g>
					<rect x="597.33" y="579.87" width="8.816" height="6.702"/>
					<rect x="597.33" y="590.727" width="8.816" height="6.702"/>
					<rect x="597.33" y="601.584" width="8.816" height="6.701"/>
					<rect x="597.33" y="558.156" width="8.816" height="6.701"/>
					<rect x="597.33" y="569.014" width="8.816" height="6.701"/>
					<rect x="597.33" y="612.441" width="8.816" height="6.701"/>
				</g>
			</g>
		</g>
		<g>
			<polygon style="fill:#EFA730;" points="198.831,541.738 198.831,506.955 155.099,515.516 155.099,550.297 144.223,552.426 
				144.223,649.201 209.707,649.201 209.707,539.609 			"/>
			<g style="opacity:0.2;">
				<g>
					<rect x="164.67" y="625.329" width="24.591" height="23.882"/>
				</g>
				<g>
					<rect x="158.446" y="579.87" width="8.817" height="6.701"/>
					<rect x="158.446" y="590.726" width="8.817" height="6.703"/>
					<rect x="158.446" y="601.583" width="8.817" height="6.701"/>
					<rect x="158.446" y="558.156" width="8.817" height="6.701"/>
					<rect x="158.446" y="569.014" width="8.817" height="6.7"/>
					<rect x="158.446" y="612.44" width="8.817" height="6.701"/>
				</g>
				<g>
					<rect x="172.558" y="579.87" width="8.816" height="6.701"/>
					<rect x="172.558" y="590.726" width="8.816" height="6.703"/>
					<rect x="172.558" y="601.583" width="8.816" height="6.701"/>
					<rect x="172.558" y="558.156" width="8.816" height="6.701"/>
					<rect x="172.558" y="569.014" width="8.816" height="6.7"/>
					<rect x="172.558" y="612.44" width="8.816" height="6.701"/>
				</g>
				<g>
					<rect x="165.502" y="522.967" width="8.817" height="6.701"/>
					<rect x="165.502" y="533.824" width="8.817" height="6.701"/>
				</g>
				<g>
					<rect x="179.613" y="522.967" width="8.816" height="6.701"/>
					<rect x="179.613" y="533.824" width="8.816" height="6.701"/>
				</g>
				<g>
					<rect x="186.668" y="579.87" width="8.816" height="6.701"/>
					<rect x="186.668" y="590.726" width="8.816" height="6.703"/>
					<rect x="186.668" y="601.583" width="8.816" height="6.701"/>
					<rect x="186.668" y="558.156" width="8.816" height="6.701"/>
					<rect x="186.668" y="569.014" width="8.816" height="6.7"/>
					<rect x="186.668" y="612.44" width="8.816" height="6.701"/>
				</g>
			</g>
		</g>
		<g>
			<polygon style="fill:#EFA730;" points="532.168,541.739 532.168,506.956 488.435,515.516 488.435,550.299 477.56,552.427 
				477.56,649.2 543.045,649.2 543.045,539.61 			"/>
			<g style="opacity:0.2;">
				<g>
					<rect x="498.008" y="625.33" width="24.59" height="23.88"/>
				</g>
				<g>
					<rect x="491.783" y="579.87" width="8.818" height="6.701"/>
					<rect x="491.783" y="590.726" width="8.818" height="6.703"/>
					<rect x="491.783" y="601.583" width="8.818" height="6.701"/>
					<rect x="491.783" y="558.156" width="8.818" height="6.701"/>
					<rect x="491.783" y="569.014" width="8.818" height="6.7"/>
					<rect x="491.783" y="612.44" width="8.818" height="6.701"/>
				</g>
				<g>
					<rect x="505.895" y="579.87" width="8.816" height="6.701"/>
					<rect x="505.895" y="590.726" width="8.816" height="6.703"/>
					<rect x="505.895" y="601.583" width="8.816" height="6.701"/>
					<rect x="505.895" y="558.156" width="8.816" height="6.701"/>
					<rect x="505.895" y="569.014" width="8.816" height="6.7"/>
					<rect x="505.895" y="612.44" width="8.816" height="6.701"/>
				</g>
				<g>
					<rect x="498.84" y="522.967" width="8.816" height="6.701"/>
					<rect x="498.84" y="533.824" width="8.816" height="6.701"/>
				</g>
				<g>
					<rect x="512.951" y="522.967" width="8.816" height="6.701"/>
					<rect x="512.951" y="533.824" width="8.816" height="6.701"/>
				</g>
				<g>
					<rect x="520.006" y="579.87" width="8.816" height="6.701"/>
					<rect x="520.006" y="590.726" width="8.816" height="6.703"/>
					<rect x="520.006" y="601.583" width="8.816" height="6.701"/>
					<rect x="520.006" y="558.156" width="8.816" height="6.701"/>
					<rect x="520.006" y="569.014" width="8.816" height="6.7"/>
					<rect x="520.006" y="612.44" width="8.816" height="6.701"/>
				</g>
			</g>
		</g>
		<g>
			<g>
				<g>
					<polygon style="fill:#EFA730;" points="372.357,649.221 306.87,649.221 306.87,455.185 372.357,442.369 					"/>
				</g>
			</g>
			<g style="opacity:0.2;">
				<g>
					<rect x="315.094" y="495.664" width="19.185" height="6.703"/>
					<rect x="315.094" y="506.522" width="19.185" height="6.701"/>
					<rect x="315.094" y="517.379" width="19.185" height="6.701"/>
					<rect x="315.094" y="473.951" width="19.185" height="6.701"/>
					<rect x="315.094" y="484.809" width="19.185" height="6.701"/>
					<rect x="315.094" y="528.236" width="19.185" height="6.701"/>
					<rect x="315.094" y="560.807" width="19.185" height="6.701"/>
					<rect x="315.094" y="571.663" width="19.185" height="6.701"/>
					<rect x="315.094" y="582.521" width="19.185" height="6.701"/>
					<polygon points="315.094,545.793 315.094,545.795 334.279,545.795 334.279,545.793 334.279,539.092 315.094,539.092 					"/>
					<rect x="315.094" y="549.949" width="19.185" height="6.701"/>
					<rect x="315.094" y="593.378" width="19.185" height="6.701"/>
					<rect x="315.094" y="604.233" width="19.185" height="6.703"/>
				</g>
				<g>
					<rect x="345.797" y="495.664" width="19.184" height="6.703"/>
					<rect x="345.797" y="506.522" width="19.184" height="6.701"/>
					<rect x="345.797" y="517.379" width="19.184" height="6.701"/>
					<rect x="345.797" y="473.951" width="19.184" height="6.701"/>
					<rect x="345.797" y="484.809" width="19.184" height="6.701"/>
					<rect x="345.797" y="528.236" width="19.184" height="6.701"/>
					<rect x="345.797" y="560.807" width="19.184" height="6.701"/>
					<rect x="345.797" y="571.663" width="19.184" height="6.701"/>
					<rect x="345.797" y="582.521" width="19.184" height="6.701"/>
					<polygon points="345.797,545.793 345.797,545.795 364.981,545.795 364.981,545.793 364.981,539.092 345.797,539.092 					"/>
					<rect x="345.797" y="549.949" width="19.184" height="6.701"/>
					<rect x="345.797" y="593.378" width="19.184" height="6.701"/>
					<rect x="345.797" y="604.233" width="19.184" height="6.703"/>
				</g>
				<g>
					<rect x="316.231" y="622.822" width="48.75" height="26.398"/>
				</g>
			</g>
		</g>
		<g>
			<g>
				<g>
					<polygon style="fill:#EFA730;" points="460.383,649.22 394.896,649.22 394.896,455.185 460.383,442.368 					"/>
				</g>
			</g>
			<g style="opacity:0.2;">
				<g>
					<rect x="403.121" y="495.664" width="19.184" height="6.702"/>
					<rect x="403.121" y="506.521" width="19.184" height="6.702"/>
					<rect x="403.121" y="517.378" width="19.184" height="6.701"/>
					<rect x="403.121" y="473.95" width="19.184" height="6.701"/>
					<rect x="403.121" y="484.808" width="19.184" height="6.701"/>
					<rect x="403.121" y="528.235" width="19.184" height="6.701"/>
					<rect x="403.121" y="560.806" width="19.184" height="6.702"/>
					<rect x="403.121" y="571.662" width="19.184" height="6.702"/>
					<rect x="403.121" y="582.521" width="19.184" height="6.701"/>
					<polygon points="403.121,545.793 403.121,545.794 422.305,545.794 422.305,545.793 422.305,539.092 403.121,539.092 					"/>
					<rect x="403.121" y="549.949" width="19.184" height="6.701"/>
					<rect x="403.121" y="593.378" width="19.184" height="6.701"/>
					<rect x="403.121" y="604.233" width="19.184" height="6.703"/>
				</g>
				<g>
					<rect x="433.824" y="495.664" width="19.184" height="6.702"/>
					<rect x="433.824" y="506.521" width="19.184" height="6.702"/>
					<rect x="433.824" y="517.378" width="19.184" height="6.701"/>
					<rect x="433.824" y="473.95" width="19.184" height="6.701"/>
					<rect x="433.824" y="484.808" width="19.184" height="6.701"/>
					<rect x="433.824" y="528.235" width="19.184" height="6.701"/>
					<rect x="433.824" y="560.806" width="19.184" height="6.702"/>
					<rect x="433.824" y="571.662" width="19.184" height="6.702"/>
					<rect x="433.824" y="582.521" width="19.184" height="6.701"/>
					<polygon points="433.824,545.793 433.824,545.794 453.008,545.794 453.008,545.793 453.008,539.092 433.824,539.092 					"/>
					<rect x="433.824" y="549.949" width="19.184" height="6.701"/>
					<rect x="433.824" y="593.378" width="19.184" height="6.701"/>
					<rect x="433.824" y="604.233" width="19.184" height="6.703"/>
				</g>
				<g>
					<rect x="404.258" y="622.821" width="48.75" height="26.398"/>
				</g>
			</g>
		</g>
	</g>
	<g>
		<path style="fill:#FFFFFF;" d="M257.389,114.689c-12.888-4.225-28.406-6.662-29.06-6.763c-0.218-0.034-0.439-0.034-0.656,0
			c-0.655,0.102-16.172,2.538-29.061,6.763c-0.877,0.288-1.471,1.107-1.471,2.03c0,8.284,1.563,16.331,4.645,23.916
			c2.462,6.056,5.89,11.828,10.19,17.155c7.321,9.068,14.583,13.677,14.888,13.869c0.348,0.218,0.742,0.327,1.136,0.327
			c0.395,0,0.788-0.109,1.136-0.327c0.306-0.192,7.567-4.801,14.888-13.869c4.301-5.327,7.729-11.099,10.191-17.155
			c3.082-7.585,4.645-15.631,4.645-23.916C258.86,115.796,258.266,114.977,257.389,114.689z"/>
		<path style="fill:#5E4130;" d="M228,176.485c-1.248,0-2.467-0.35-3.525-1.013c-0.835-0.524-8.347-5.374-16.001-14.855
			c-4.577-5.668-8.23-11.821-10.858-18.287c-3.302-8.126-4.976-16.743-4.976-25.61c0-2.876,1.837-5.411,4.57-6.307
			c13.256-4.346,29.104-6.83,29.772-6.934c0.671-0.104,1.362-0.104,2.034,0c0.671,0.104,16.528,2.592,29.774,6.935
			c2.733,0.896,4.569,3.43,4.569,6.306c0,8.867-1.674,17.483-4.976,25.609c-2.628,6.467-6.282,12.62-10.859,18.288
			c-7.653,9.48-15.165,14.331-15.996,14.852C230.467,176.135,229.248,176.485,228,176.485z M201.665,118.438
			c0.2,7.094,1.641,13.983,4.29,20.503c2.296,5.648,5.5,11.039,9.523,16.021c5.11,6.33,10.225,10.361,12.523,12.019
			c2.296-1.656,7.411-5.688,12.522-12.018c4.023-4.982,7.228-10.373,9.523-16.023c2.649-6.519,4.09-13.408,4.289-20.502
			c-11.27-3.504-23.988-5.631-26.335-6.008C225.656,112.807,212.943,114.931,201.665,118.438z"/>
	</g>
	<g>
		<path style="fill:#FFFFFF;" d="M293.073,235.657c-15.322,0-27.742-9.314-27.742-20.807c0-11.49,12.42-20.805,27.742-20.805
			c15.32,0,27.742,9.315,27.742,20.805C320.814,226.342,308.393,235.657,293.073,235.657z"/>
		<g>
			<path style="fill:#EE7922;" d="M279.202,209.65c-2.874,0-5.202,2.328-5.202,5.201c0,2.872,2.328,5.202,5.202,5.202
				c2.871,0,5.202-2.329,5.202-5.202C284.404,211.979,282.073,209.65,279.202,209.65z"/>
			<path style="fill:#EFA730;" d="M293.073,209.65c-2.874,0-5.202,2.328-5.202,5.201c0,2.872,2.328,5.202,5.202,5.202
				c2.872,0,5.202-2.329,5.202-5.202C298.274,211.979,295.945,209.65,293.073,209.65z"/>
			<path style="fill:#5E4130;" d="M306.944,209.65c-2.874,0-5.201,2.328-5.201,5.201c0,2.872,2.328,5.202,5.201,5.202
				c2.872,0,5.202-2.329,5.202-5.202C312.145,211.979,309.815,209.65,306.944,209.65z"/>
			<path style="fill:#5E4130;" d="M293.073,187.11c-19.152,0-34.677,12.419-34.677,27.74c0,10.263,6.982,19.203,17.338,24.002
				v10.675c0,3.833,1.93,4.506,4.31,1.504l7.258-8.852c1.881,0.252,3.799,0.415,5.771,0.415c19.151,0,34.677-12.422,34.677-27.744
				C327.75,199.53,312.224,187.11,293.073,187.11z M293.073,235.657c-15.322,0-27.742-9.314-27.742-20.807
				c0-11.49,12.42-20.805,27.742-20.805c15.32,0,27.742,9.315,27.742,20.805C320.814,226.342,308.393,235.657,293.073,235.657z"/>
		</g>
	</g>
	<g>
		<g>
			<path style="fill:#FFFFFF;" d="M320.135,113.975l25.445,20.155c1.154,0.914,2.744,1.319,4.288,1.243
				c1.541,0.076,3.132-0.328,4.285-1.243l25.448-20.155c2.037-1.605,1.576-2.921-1.012-2.921h-28.718h-28.72
				C318.563,111.054,318.101,112.37,320.135,113.975z"/>
			<path style="fill:#FFFFFF;" d="M378.265,121.763l-25.01,18.989c-0.936,0.703-2.162,1.045-3.381,1.029
				c-1.222,0.016-2.448-0.329-3.383-1.029l-25.015-18.989c-1.858-1.408-3.376-0.652-3.376,1.676v31.156
				c0,2.33,1.907,4.237,4.236,4.237h27.534h27.536c2.329,0,4.236-1.907,4.236-4.237v-31.156
				C381.641,121.11,380.122,120.355,378.265,121.763z"/>
		</g>
	</g>
	<path style="fill:#FFFFFF;" d="M585.552,282.714c-0.017,0-0.025,0-0.042,0c-0.653-10.324-9.238-18.493-19.723-18.493
		c-9.68,0-17.731,6.956-19.436,16.135c-0.221-0.008-0.449-0.017-0.669-0.017c-7.212,0-13.294,4.776-15.278,11.333
		c-0.307-0.025-0.62-0.043-0.934-0.043c-5.692,0-10.315,4.615-10.315,10.315c0,5.701,4.614,10.316,10.307,10.316
		c0.085,0,56.082,0,56.082,0c8.16,0,14.769-6.617,14.769-14.769C600.313,289.339,593.713,282.714,585.552,282.714z"/>
	<g>
		<g>
			<path style="fill:#FFFFFF;" d="M350.169,312.396c4.393,0,7.953,3.561,7.953,7.954c0,4.392-3.561,7.953-7.953,7.953
				c-4.393,0-7.952-3.561-7.952-7.953C342.217,315.957,345.777,312.396,350.169,312.396z"/>
			<path style="fill:#FFFFFF;" d="M369.177,301.186c-0.117-0.121-0.242-0.229-0.363-0.34l-0.358-0.338
				c-0.059-0.063-0.124-0.108-0.2-0.168c-10.284-9.343-26.023-8.973-35.84,0.843l-1.15,1.154l-1.594,1.593
				c-1.94,1.941-1.93,5.104,0.014,7.049c1.948,1.951,5.111,1.954,7.049,0.013l2.748-2.748c6.241-6.239,16.395-6.239,22.633-0.003
				l1.984,1.921c1.921,1.921,5.055,1.918,6.985-0.017c0.935-0.931,1.449-2.173,1.453-3.495c0.002-1.314-0.506-2.557-1.44-3.484
				L369.177,301.186z"/>
			<path style="fill:#FFFFFF;" d="M382.727,291.355l-1.651-1.652c-0.008-0.006-0.011-0.017-0.023-0.02l-1.305-1.311
				c-0.229-0.226-0.479-0.423-0.741-0.593c-16.763-14.717-42.258-14.264-58.486,1.347c-0.079,0.072-0.167,0.122-0.246,0.2
				l-2.983,2.986c-1.771,1.768-1.761,4.643,0.02,6.423c1.777,1.776,4.652,1.79,6.422,0.016l2.983-2.98
				c0.02-0.026,0.036-0.049,0.056-0.065c13.123-12.678,33.941-12.756,47.169-0.259l2.348,2.351c1.767,1.767,4.648,1.761,6.426-0.017
				C384.488,296,384.495,293.122,382.727,291.355z"/>
		</g>
	</g>
	<g>
		<path style="fill:#FFFFFF;" d="M688.815,326.481c0.111-0.649,0.186-1.315,0.186-1.994c0-6.335-5.137-11.472-11.475-11.472
			c-1.38,0-2.702,0.254-3.929,0.704c-3.733-5.787-10.225-9.632-17.627-9.632c-11.587,0-20.978,9.393-20.978,20.978
			c0,0.542,0.04,1.078,0.082,1.612c-5.607,1.407-9.765,6.481-9.765,12.523c0,7.131,5.779,12.925,12.909,12.925c0,0,12.191,0,13.78,0
			l0.147-10.432c0.017-5.022,4.119-9.104,9.139-9.104h0.024h0.006l3.561,0.04c2.439,0.006,4.732,0.961,6.456,2.693
			c1.723,1.733,2.664,4.028,2.654,6.503l-0.154,10.3h12.799c7.128,0,12.907-5.796,12.907-12.927
			C699.539,332.816,694.902,327.519,688.815,326.481z"/>
		<g>
			<g>
				<path style="fill:#5E4130;" d="M660.771,372.487c0.536,0.538,1.378,0.836,2.218,0.836c0.752,0,1.684-0.298,2.216-0.834
					l16.636-16.753c0.816-0.819,1.057-2.053,0.608-3.121c-0.445-1.065-1.492-1.76-2.648-1.758l-5.429,0.043l0.081-14.464
					c-0.01-2.355-1.922-4.26-4.275-4.26h-14.381c-2.353,0-4.264,1.905-4.273,4.26l0.078,14.458l-5.426-0.039
					c-1.159-0.003-2.206,0.692-2.651,1.758c-0.448,1.066-0.208,2.303,0.608,3.122L660.771,372.487z"/>
			</g>
		</g>
	</g>
	<g id="Icons">
	</g>
	<g>
		<path style="fill:#3C2415;" d="M146.422,618.813c-0.063-0.474-0.48-0.815-0.958-0.798c-0.479,0.021-0.86,0.406-0.879,0.885
			c-0.274,6.911-1.461,25.652-3.635,29.336c-0.169,0.286-0.171,0.64-0.007,0.927c0.164,0.288,0.471,0.466,0.802,0.466h6.077
			c0.47,0,0.866-0.354,0.918-0.82C149.512,641.852,146.549,619.751,146.422,618.813z"/>
		<path style="fill:#52B74A;" d="M157.006,596.889c-2.278-2.288-5.869-3.399-10.979-3.399c-5.109,0-8.701,1.111-10.978,3.399
			c-3.478,3.493-3.454,9.086-3.425,15.56c0.003,0.586,0.006,1.178,0.006,1.777c0,5.466,0,10.631,1.772,14.402
			c2.029,4.32,6.042,6.333,12.626,6.333c6.584,0,10.596-2.013,12.626-6.333c1.772-3.772,1.772-8.937,1.772-14.402
			c0-0.6,0.002-1.191,0.005-1.777C160.459,605.975,160.484,600.382,157.006,596.889z"/>
	</g>
	<g>
		<path style="fill:#3C2415;" d="M302.489,619.659c-0.064-0.474-0.48-0.815-0.958-0.798c-0.479,0.021-0.86,0.406-0.879,0.885
			c-0.274,6.911-1.461,25.652-3.635,29.336c-0.169,0.286-0.171,0.64-0.007,0.927c0.164,0.288,0.471,0.466,0.802,0.466h6.077
			c0.47,0,0.866-0.354,0.918-0.82C305.578,642.698,302.615,620.597,302.489,619.659z"/>
		<path style="fill:#52B74A;" d="M313.073,597.734c-2.278-2.288-5.869-3.399-10.979-3.399c-5.109,0-8.701,1.111-10.978,3.399
			c-3.478,3.493-3.454,9.086-3.425,15.56c0.003,0.586,0.006,1.178,0.006,1.777c0,5.466,0,10.631,1.772,14.402
			c2.029,4.32,6.042,6.333,12.625,6.333c6.585,0,10.596-2.013,12.626-6.333c1.772-3.771,1.772-8.936,1.772-14.402
			c0-0.6,0.002-1.191,0.005-1.777C316.525,606.82,316.551,601.227,313.073,597.734z"/>
	</g>
	<g>
		<path style="fill:#3C2415;" d="M377.527,619.585c-0.063-0.474-0.48-0.816-0.957-0.798c-0.479,0.021-0.86,0.406-0.879,0.885
			c-0.274,6.911-1.461,25.652-3.635,29.336c-0.169,0.286-0.171,0.64-0.007,0.927c0.164,0.288,0.471,0.466,0.802,0.466h6.077
			c0.47,0,0.866-0.354,0.917-0.82C380.617,642.624,377.654,620.523,377.527,619.585z"/>
		<path style="fill:#52B74A;" d="M388.111,597.66c-2.278-2.288-5.869-3.4-10.979-3.4c-5.109,0-8.701,1.111-10.978,3.4
			c-3.478,3.493-3.454,9.086-3.425,15.56c0.003,0.586,0.006,1.178,0.006,1.777c0,5.466,0,10.631,1.772,14.402
			c2.029,4.32,6.042,6.333,12.625,6.333c6.585,0,10.596-2.013,12.626-6.333c1.772-3.771,1.772-8.937,1.772-14.402
			c0-0.6,0.002-1.191,0.005-1.777C391.564,606.746,391.589,601.153,388.111,597.66z"/>
	</g>
	<g>
		<path style="fill:#3C2415;" d="M209.102,618.585c-0.063-0.474-0.48-0.816-0.958-0.798c-0.479,0.021-0.86,0.406-0.879,0.885
			c-0.274,6.911-1.461,25.652-3.635,29.336c-0.17,0.286-0.171,0.64-0.007,0.927c0.164,0.288,0.471,0.466,0.802,0.466h6.077
			c0.47,0,0.866-0.354,0.917-0.82C212.191,641.624,209.228,619.523,209.102,618.585z"/>
		<path style="fill:#52B74A;" d="M219.686,596.66c-2.278-2.288-5.869-3.4-10.979-3.4c-5.109,0-8.701,1.111-10.978,3.4
			c-3.478,3.493-3.454,9.086-3.425,15.56c0.003,0.586,0.006,1.178,0.006,1.777c0,5.466,0,10.631,1.772,14.402
			c2.029,4.32,6.042,6.333,12.626,6.333c6.584,0,10.596-2.013,12.626-6.333c1.772-3.771,1.772-8.937,1.772-14.402
			c0-0.6,0.002-1.191,0.005-1.777C223.138,605.746,223.164,600.153,219.686,596.66z"/>
	</g>
	<g>
		<path style="fill:#3C2415;" d="M551.565,618.585c-0.063-0.474-0.479-0.816-0.957-0.798c-0.478,0.021-0.859,0.406-0.879,0.885
			c-0.274,6.911-1.461,25.652-3.635,29.336c-0.17,0.286-0.172,0.64-0.008,0.927c0.164,0.288,0.471,0.466,0.802,0.466h6.077
			c0.469,0,0.865-0.354,0.917-0.82C554.654,641.624,551.691,619.523,551.565,618.585z"/>
		<path style="fill:#52B74A;" d="M562.148,596.66c-2.277-2.288-5.868-3.4-10.979-3.4c-5.109,0-8.7,1.111-10.977,3.4
			c-3.478,3.493-3.454,9.086-3.425,15.56c0.002,0.586,0.006,1.178,0.006,1.777c0,5.466,0,10.631,1.771,14.402
			c2.029,4.32,6.041,6.333,12.625,6.333c6.585,0,10.597-2.013,12.627-6.333c1.771-3.771,1.771-8.937,1.771-14.402
			c0-0.6,0.002-1.191,0.006-1.777C565.602,605.746,565.627,600.153,562.148,596.66z"/>
	</g>
	<g>
		<path style="fill:#3C2415;" d="M624.262,619.398c-0.063-0.474-0.479-0.816-0.957-0.798c-0.479,0.021-0.859,0.406-0.879,0.885
			c-0.274,6.911-1.461,25.652-3.635,29.336c-0.17,0.286-0.172,0.64-0.008,0.927c0.164,0.288,0.471,0.466,0.802,0.466h6.077
			c0.469,0,0.865-0.354,0.917-0.82C627.352,642.437,624.389,620.335,624.262,619.398z"/>
		<path style="fill:#52B74A;" d="M634.846,597.473c-2.277-2.288-5.868-3.4-10.979-3.4c-5.109,0-8.7,1.111-10.978,3.4
			c-3.477,3.493-3.454,9.086-3.425,15.56c0.002,0.586,0.006,1.178,0.006,1.777c0,5.466,0,10.631,1.771,14.402
			c2.029,4.32,6.041,6.333,12.625,6.333c6.585,0,10.597-2.013,12.627-6.333c1.771-3.771,1.771-8.937,1.771-14.402
			c0-0.6,0.002-1.191,0.006-1.777C638.299,606.559,638.324,600.966,634.846,597.473z"/>
	</g>
	<rect x="485.397" y="634.2" style="fill:#081928;" width="3.941" height="15.481"/>
	<g>
		<rect x="536.229" y="634.2" style="fill:#081928;" width="3.941" height="15.481"/>
		<rect x="568.889" y="634.2" style="fill:#081928;" width="3.941" height="15.481"/>
	</g>
	<g>
		<rect x="361.672" y="633.739" style="fill:#081928;" width="3.941" height="15.48"/>
		<rect x="394.332" y="633.739" style="fill:#081928;" width="3.941" height="15.48"/>
	</g>
	<g>
		<rect x="278.115" y="633.739" style="fill:#081928;" width="3.941" height="15.48"/>
		<rect x="310.775" y="633.739" style="fill:#081928;" width="3.941" height="15.48"/>
	</g>
	<g>
		<rect x="196.365" y="633.739" style="fill:#081928;" width="3.941" height="15.48"/>
		<rect x="229.025" y="633.739" style="fill:#081928;" width="3.941" height="15.48"/>
	</g>
	<g>
		<rect x="155.181" y="633.739" style="fill:#081928;" width="3.941" height="15.48"/>
	</g>
	<rect x="637.188" y="634.2" style="fill:#081928;" width="3.941" height="15.481"/>
	<rect x="683.313" y="633.594" style="fill:#081928;" width="3.941" height="15.48"/>
	<rect x="455.77" y="634.2" style="fill:#081928;" width="3.941" height="15.481"/>
	<g>
		
			<rect x="653.979" y="227.843" transform="matrix(0.9514 -0.3079 0.3079 0.9514 -40.3123 213.3916)" style="fill:#E6A123;" width="4.186" height="13.201"/>
		<g>
			<path style="fill:#FFFFFF;" d="M666.508,202.932c3.257,10.078-2.271,20.89-12.347,24.148c-10.078,3.26-20.891-2.268-24.15-12.347
				c-3.257-10.077,2.27-20.888,12.348-24.147C652.435,187.325,663.248,192.854,666.508,202.932z"/>
			<path style="fill:#5E4130;" d="M637.733,229.422c-5.5-2.811-9.575-7.596-11.478-13.474c-3.923-12.132,2.756-25.194,14.887-29.119
				c5.878-1.899,12.143-1.398,17.643,1.413c5.501,2.813,9.575,7.598,11.477,13.476c3.924,12.132-2.756,25.193-14.887,29.117
				C649.498,232.736,643.231,232.234,637.733,229.422z M655.192,195.271c-3.622-1.851-7.749-2.183-11.62-0.93
				c-7.99,2.584-12.389,11.188-9.805,19.178c1.251,3.872,3.935,7.023,7.557,8.876c3.624,1.853,7.751,2.183,11.621,0.93
				c7.991-2.584,12.391-11.189,9.807-19.179C661.5,200.275,658.814,197.123,655.192,195.271z"/>
		</g>
		<path style="fill:#5E4130;" d="M669.592,259.183c1.542,4.768-8.176,7.035-9.497,3.071c-1.32-3.964-7.663-22.613-7.663-22.613
			l9.498-3.072C661.93,236.569,668.269,255.072,669.592,259.183z"/>
	</g>
	<g>
		<g>
			<g>
				<g>
					<g>
						<g id="Facebook_Places_10_">
							<g>
								<path style="fill:#EE7922;" d="M628.777,100.36c-0.292-1.095-0.885-2.262-1.325-3.285
									c-5.253-12.626-16.731-17.151-26.001-17.151c-12.408,0-26.074,8.32-27.899,25.47v3.504c0,0.146,0.051,1.46,0.122,2.117
									c1.023,8.173,7.473,16.86,12.289,25.033c5.182,8.757,10.56,17.371,15.887,25.982c3.284-5.619,6.558-11.312,9.768-16.785
									c0.875-1.607,1.89-3.212,2.766-4.745c0.584-1.021,1.7-2.042,2.209-2.992c5.182-9.487,13.522-19.047,13.522-28.463v-3.868
									C630.114,104.156,628.85,100.581,628.777,100.36z M601.679,117.949c-3.647,0-7.64-1.824-9.611-6.86
									c-0.293-0.802-0.269-2.408-0.269-2.556v-2.263c0-6.42,5.452-9.34,10.193-9.34c5.839,0,10.355,4.671,10.355,10.51
									C612.348,113.279,607.517,117.949,601.679,117.949z"/>
							</g>
						</g>
					</g>
				</g>
			</g>
		</g>
		<path style="fill:#FFFFFF;" d="M601.679,117.949c-3.647,0-7.64-1.824-9.611-6.86c-0.293-0.802-0.269-2.408-0.269-2.556v-2.263
			c0-6.42,5.452-9.34,10.193-9.34c5.839,0,10.355,4.671,10.355,10.51C612.348,113.279,607.517,117.949,601.679,117.949z"/>
	</g>
	<g>
		<g>
			<g>
				<path style="fill:#5E4130;" d="M454.982,94.069h-30.964c-2.965,0-5.357,2.402-5.357,5.361v62.878
					c0,2.956,2.392,5.356,5.357,5.356h30.964c2.958,0,5.355-2.4,5.355-5.356V99.43C460.338,96.471,457.94,94.069,454.982,94.069z
					 M431.86,97.325h15.286c0.386,0,0.699,0.576,0.699,1.29c0,0.713-0.314,1.293-0.699,1.293H431.86
					c-0.39,0-0.698-0.579-0.698-1.293C431.162,97.901,431.471,97.325,431.86,97.325z M439.503,162.373
					c-1.886,0-3.419-1.534-3.419-3.422s1.533-3.417,3.419-3.417c1.881,0,3.414,1.528,3.414,3.417S441.384,162.373,439.503,162.373z
					 M456.326,150.656h-33.65v-47.541h33.65V150.656L456.326,150.656z"/>
			</g>
		</g>
		<polygon style="fill:#FFFFFF;" points="456.326,150.656 422.676,150.656 422.676,103.115 456.326,103.115 456.326,150.656 		"/>
		<g>
			<path style="fill:#FFFFFF;" d="M431.86,97.325h15.286c0.386,0,0.699,0.576,0.699,1.29c0,0.713-0.314,1.293-0.699,1.293H431.86
				c-0.39,0-0.698-0.579-0.698-1.293C431.162,97.901,431.471,97.325,431.86,97.325z"/>
			<path style="fill:#FFFFFF;" d="M439.503,162.373c-1.886,0-3.419-1.534-3.419-3.422s1.533-3.417,3.419-3.417
				c1.881,0,3.414,1.528,3.414,3.417S441.384,162.373,439.503,162.373z"/>
		</g>
	</g>
	<g>
		<path style="fill:#5E4130;" d="M454.091,282.879h-21.714c-1.615,0-2.925,1.311-2.925,2.927c0,1.617,1.31,2.927,2.925,2.927h21.714
			c1.614,0,2.927-1.31,2.927-2.927C457.018,284.19,455.705,282.879,454.091,282.879z"/>
		<path style="fill:#5E4130;" d="M437.545,295.298v1.594c0,1.8,1.457,3.259,3.258,3.259h4.864c1.799,0,3.26-1.459,3.26-3.259v-1.594
			c3.688-0.261,6.607-3.305,6.607-7.058h-24.598C430.936,291.994,433.857,295.037,437.545,295.298z"/>
		<path style="fill:#EFA730;" d="M442.838,228.488c-14.561,0-26.365,11.803-26.365,26.362c0,6.144,2.113,11.784,5.645,16.261
			c3.121,3.957,6.08,8.283,8.631,12.634h24.176c2.576-4.392,5.481-8.637,8.634-12.636c3.526-4.476,5.641-10.117,5.641-16.259
			C469.198,240.292,457.395,228.488,442.838,228.488z"/>
	</g>
	<g>
		<g>
			<g>
				<path style="fill:#5E4130;" d="M128.964,266.397c0,0.429,0,0.91,0,1.069c0,0.158,0.13,0.289,0.289,0.289c0.159,0,0.64,0,1.068,0
					h5.187c0.428,0,0.91,0,1.068,0c0.159,0,0.289-0.13,0.289-0.289c0-0.159,0-0.64,0-1.069v-3.032c0-0.429,0.331-0.895,0.736-1.038
					l1.228-0.506c0.387-0.184,0.952-0.086,1.255,0.217l2.139,2.139c0.303,0.303,0.643,0.643,0.755,0.755
					c0.112,0.112,0.296,0.112,0.409,0s0.453-0.452,0.755-0.755l3.667-3.667c0.303-0.303,0.643-0.644,0.756-0.756
					c0.113-0.113,0.113-0.297,0-0.409c-0.113-0.112-0.453-0.452-0.756-0.755l-2.15-2.151c-0.303-0.303-0.401-0.868-0.218-1.255
					l0.448-1.081c0.144-0.404,0.613-0.734,1.042-0.734h2.961c0.429,0,0.91,0,1.069,0c0.159,0,0.289-0.13,0.289-0.288
					c0-0.159,0-0.64,0-1.068v-5.188c0-0.429,0-0.909,0-1.068c0-0.159-0.13-0.289-0.289-0.289c-0.159,0-0.64,0-1.069,0h-2.962
					c-0.429,0-0.896-0.331-1.039-0.735l-0.388-0.951c-0.18-0.389-0.08-0.955,0.224-1.258l2.083-2.084
					c0.303-0.303,0.643-0.643,0.756-0.756c0.113-0.112,0.113-0.296,0-0.409c-0.113-0.113-0.453-0.453-0.756-0.756l-3.667-3.667
					c-0.303-0.303-0.643-0.644-0.755-0.756c-0.112-0.112-0.296-0.112-0.409,0c-0.112,0.112-0.453,0.453-0.755,0.756l-2.015,2.015
					c-0.303,0.303-0.866,0.396-1.251,0.208l-1.167-0.5c-0.403-0.148-0.732-0.619-0.732-1.048v-2.894c0-0.428,0-0.91,0-1.068
					c0-0.159-0.13-0.289-0.289-0.289c-0.159,0-0.64,0-1.068,0h-5.187c-0.429,0-0.91,0-1.069,0c-0.159,0-0.289,0.13-0.289,0.289
					c0,0.159,0,0.64,0,1.068v2.839c0,0.428-0.331,0.896-0.735,1.039l-1.354,0.567c-0.386,0.187-0.95,0.092-1.252-0.211l-2.016-2.015
					c-0.303-0.303-0.643-0.644-0.755-0.756c-0.112-0.112-0.296-0.112-0.409,0c-0.112,0.112-0.453,0.453-0.755,0.756l-3.667,3.667
					c-0.303,0.303-0.644,0.643-0.756,0.756c-0.113,0.112-0.113,0.296,0,0.409c0.113,0.113,0.453,0.453,0.756,0.756l2.083,2.084
					c0.303,0.303,0.405,0.87,0.226,1.259l-0.455,1.14c-0.138,0.406-0.602,0.738-1.03,0.738h-2.906c-0.429,0-0.91,0-1.069,0
					c-0.16,0-0.289,0.13-0.289,0.289c0,0.159,0,0.64,0,1.068v5.188c0,0.428,0,0.91,0,1.068c0,0.159,0.13,0.289,0.289,0.289
					c0.16,0,0.641,0,1.069,0h3.021c0.428,0,0.901,0.33,1.049,0.732l0.377,0.892c0.185,0.387,0.088,0.951-0.215,1.254l-2.149,2.151
					c-0.303,0.303-0.643,0.643-0.756,0.755s-0.113,0.296,0,0.409c0.113,0.112,0.453,0.453,0.756,0.756l3.668,3.667
					c0.303,0.303,0.643,0.643,0.755,0.755c0.112,0.112,0.296,0.112,0.408,0c0.112-0.112,0.453-0.452,0.755-0.755l2.139-2.139
					c0.303-0.303,0.867-0.399,1.254-0.214l1.039,0.438c0.403,0.147,0.732,0.618,0.732,1.046V266.397z M133.012,257.609
					c-4.517,0-8.191-3.674-8.191-8.19c0-4.518,3.674-8.192,8.191-8.192c4.517,0,8.191,3.675,8.191,8.192
					C141.203,253.936,137.528,257.609,133.012,257.609z"/>
			</g>
			<g>
				<path style="fill:#5E4130;" d="M152.36,231.208c0,0.585,0,1.24,0,1.456c0,0.216,0.177,0.394,0.394,0.394
					c0.216,0,0.872,0,1.457,0h7.071c0.584,0,1.24,0,1.456,0c0.217,0,0.394-0.177,0.394-0.394c0-0.216,0-0.872,0-1.456v-4.133
					c0-0.584,0.451-1.221,1.003-1.414l1.674-0.69c0.528-0.251,1.298-0.117,1.711,0.296l2.916,2.916
					c0.413,0.413,0.876,0.877,1.029,1.03c0.154,0.153,0.404,0.153,0.557,0c0.153-0.153,0.617-0.617,1.03-1.03l5-4.999
					c0.413-0.413,0.877-0.876,1.03-1.03c0.154-0.153,0.154-0.404,0-0.558c-0.153-0.153-0.617-0.617-1.03-1.03l-2.932-2.932
					c-0.413-0.413-0.547-1.183-0.296-1.711l0.611-1.473c0.196-0.551,0.835-1.001,1.419-1.001h4.037c0.585,0,1.24,0,1.457,0
					c0.217,0,0.394-0.177,0.394-0.394c0-0.216,0-0.872,0-1.456v-7.072c0-0.584,0-1.24,0-1.456c0-0.217-0.177-0.394-0.394-0.394
					c-0.216,0-0.872,0-1.457,0h-4.039c-0.584,0-1.222-0.451-1.416-1.002l-0.528-1.297c-0.246-0.53-0.108-1.302,0.304-1.715
					l2.839-2.841c0.413-0.413,0.877-0.877,1.03-1.031c0.154-0.153,0.154-0.404,0-0.557c-0.153-0.153-0.617-0.617-1.03-1.03l-5-4.999
					c-0.413-0.413-0.876-0.877-1.03-1.03c-0.153-0.153-0.403-0.153-0.557,0c-0.153,0.153-0.616,0.617-1.029,1.03l-2.747,2.747
					c-0.413,0.413-1.181,0.541-1.706,0.283l-1.591-0.681c-0.549-0.202-0.998-0.844-0.998-1.429v-3.945c0-0.584,0-1.24,0-1.456
					c0-0.217-0.177-0.395-0.394-0.395c-0.216,0-0.872,0-1.456,0h-7.072c-0.584,0-1.24,0-1.457,0c-0.217,0-0.395,0.178-0.395,0.395
					c0,0.216,0,0.872,0,1.456v3.87c0,0.585-0.451,1.223-1.002,1.417l-1.846,0.773c-0.527,0.255-1.295,0.125-1.708-0.288
					l-2.747-2.747c-0.413-0.413-0.877-0.877-1.03-1.03c-0.153-0.153-0.404-0.153-0.557,0c-0.153,0.153-0.617,0.617-1.03,1.03
					l-4.999,4.999c-0.413,0.413-0.877,0.877-1.031,1.03c-0.153,0.153-0.153,0.404,0,0.557c0.154,0.154,0.618,0.618,1.031,1.031
					l2.839,2.841c0.413,0.413,0.552,1.186,0.308,1.717l-0.62,1.553c-0.188,0.553-0.82,1.006-1.404,1.006h-3.962
					c-0.584,0-1.24,0-1.458,0c-0.217,0-0.395,0.177-0.395,0.394c0,0.216,0,0.872,0,1.456v7.072c0,0.584,0,1.24,0,1.457
					c0,0.216,0.178,0.393,0.395,0.393c0.218,0,0.874,0,1.458,0h4.118c0.585,0,1.229,0.449,1.431,0.997l0.514,1.216
					c0.252,0.527,0.121,1.296-0.293,1.709l-2.931,2.932c-0.413,0.413-0.877,0.876-1.031,1.03c-0.153,0.153-0.153,0.404,0,0.558
					c0.154,0.154,0.618,0.618,1.031,1.03l4.999,4.999c0.413,0.413,0.877,0.877,1.03,1.03c0.153,0.153,0.404,0.153,0.557,0
					c0.153-0.153,0.617-0.617,1.03-1.03l2.916-2.916c0.413-0.413,1.183-0.544,1.709-0.292l1.417,0.598
					c0.549,0.2,0.999,0.842,0.999,1.426V231.208z M157.877,219.23c-6.158,0-11.167-5.008-11.167-11.166
					c0-6.158,5.009-11.169,11.167-11.169c6.157,0,11.167,5.01,11.167,11.169C169.044,214.221,164.034,219.23,157.877,219.23z"/>
			</g>
			<g>
				<path style="fill:#5E4130;" d="M175.615,288.162c0,0.429,0,0.975,0,1.213s0.195,0.433,0.433,0.433c0.238,0,0.784,0,1.212,0
					h8.558c0.429,0,0.975,0,1.213,0c0.238,0,0.433-0.195,0.433-0.433s0-0.784,0-1.213v-5.326c0-0.429,0.331-0.896,0.736-1.037
					l2.561-1.055c0.387-0.184,0.952-0.086,1.255,0.217l3.758,3.758c0.303,0.303,0.689,0.689,0.857,0.858
					c0.169,0.169,0.444,0.169,0.613,0c0.169-0.169,0.554-0.555,0.857-0.858l6.051-6.049c0.303-0.303,0.689-0.689,0.858-0.858
					c0.168-0.169,0.168-0.445,0-0.613c-0.169-0.169-0.555-0.555-0.858-0.858l-3.776-3.776c-0.303-0.303-0.401-0.868-0.217-1.256
					l0.969-2.338c0.144-0.404,0.613-0.734,1.042-0.734h5.22c0.428,0,0.974,0,1.212,0c0.239,0,0.434-0.195,0.434-0.433
					c0-0.239,0-0.784,0-1.213v-8.558c0-0.429,0-0.974,0-1.212s-0.195-0.433-0.434-0.433c-0.238,0-0.784,0-1.212,0h-5.221
					c-0.428,0-0.896-0.331-1.039-0.735l-0.875-2.147c-0.18-0.389-0.08-0.956,0.224-1.258l3.674-3.675
					c0.303-0.303,0.689-0.689,0.858-0.858c0.168-0.169,0.168-0.445,0-0.613c-0.169-0.169-0.555-0.555-0.858-0.858l-6.051-6.05
					c-0.303-0.303-0.689-0.689-0.857-0.857c-0.169-0.168-0.444-0.168-0.613,0c-0.168,0.169-0.554,0.555-0.857,0.857l-3.571,3.572
					c-0.303,0.303-0.866,0.396-1.251,0.208l-2.465-1.054c-0.403-0.148-0.732-0.619-0.732-1.048v-5.119c0-0.429,0-0.975,0-1.213
					c0-0.238-0.195-0.434-0.433-0.434c-0.238,0-0.784,0-1.212,0h-8.558c-0.429,0-0.975,0-1.213,0s-0.434,0.195-0.434,0.434
					c0,0.238,0,0.784,0,1.213v5.035c0,0.429-0.331,0.896-0.735,1.04l-2.749,1.149c-0.386,0.187-0.95,0.092-1.253-0.211l-3.573-3.572
					c-0.303-0.303-0.689-0.689-0.857-0.857c-0.169-0.168-0.444-0.168-0.613,0c-0.168,0.169-0.554,0.555-0.857,0.857l-6.05,6.05
					c-0.303,0.303-0.689,0.689-0.858,0.858c-0.169,0.168-0.169,0.444,0,0.613c0.169,0.168,0.555,0.555,0.858,0.858l3.674,3.675
					c0.303,0.303,0.404,0.87,0.226,1.259l-0.969,2.432c-0.138,0.405-0.602,0.738-1.031,0.738h-5.138c-0.429,0-0.975,0-1.214,0
					c-0.239,0-0.434,0.195-0.434,0.433s0,0.784,0,1.212v8.558c0,0.429,0,0.975,0,1.213c0,0.238,0.195,0.433,0.434,0.433
					c0.239,0,0.785,0,1.214,0h5.309c0.429,0,0.901,0.329,1.049,0.731l0.868,2.053c0.185,0.387,0.088,0.952-0.215,1.255l-3.774,3.776
					c-0.303,0.303-0.689,0.689-0.858,0.858c-0.169,0.168-0.169,0.444,0,0.613c0.168,0.168,0.555,0.555,0.858,0.858l6.051,6.049
					c0.303,0.303,0.688,0.689,0.856,0.858c0.169,0.169,0.444,0.169,0.613,0c0.169-0.169,0.555-0.555,0.857-0.858l3.759-3.758
					c0.303-0.303,0.867-0.399,1.253-0.214l2.275,0.96c0.403,0.147,0.732,0.618,0.732,1.046V288.162z M181.685,274.596
					c-6.773,0-12.284-5.51-12.284-12.283c0-6.774,5.511-12.285,12.284-12.285c6.773,0,12.284,5.511,12.284,12.285
					C193.969,269.086,188.458,274.596,181.685,274.596z"/>
			</g>
		</g>
		<path style="fill:#FFFFFF;" d="M157.877,220.73c-6.984,0-12.667-5.682-12.667-12.666c0-6.985,5.683-12.669,12.667-12.669
			c6.984,0,12.667,5.683,12.667,12.669C170.544,215.048,164.862,220.73,157.877,220.73z M157.877,198.395
			c-5.331,0-9.667,4.337-9.667,9.669c0,5.33,4.336,9.666,9.667,9.666c5.331,0,9.667-4.336,9.667-9.666
			C167.544,202.733,163.208,198.395,157.877,198.395z"/>
		<path style="fill:#FFFFFF;" d="M181.685,276.096c-7.601,0-13.784-6.183-13.784-13.783c0-7.601,6.184-13.785,13.784-13.785
			s13.784,6.184,13.784,13.785C195.469,269.913,189.285,276.096,181.685,276.096z M181.685,251.528
			c-5.946,0-10.784,4.838-10.784,10.785c0,5.946,4.838,10.783,10.784,10.783c5.946,0,10.784-4.837,10.784-10.783
			C192.469,256.366,187.631,251.528,181.685,251.528z"/>
		<path style="fill:#FFFFFF;" d="M133.012,259.109c-5.344,0-9.691-4.347-9.691-9.69c0-5.344,4.348-9.692,9.691-9.692
			c5.344,0,9.691,4.348,9.691,9.692C142.703,254.763,138.355,259.109,133.012,259.109z M133.012,242.727
			c-3.689,0-6.691,3.002-6.691,6.692c0,3.689,3.002,6.69,6.691,6.69c3.689,0,6.691-3.001,6.691-6.69
			C139.703,245.729,136.701,242.727,133.012,242.727z"/>
	</g>
	<g>
		<path style="fill:#5E4130;" d="M557.045,150.217h-41.823l-3.368-0.002c-0.63,0.003-1.143,0.517-1.146,1.146v34.996
			c0.004,0.626,0.516,1.14,1.144,1.141h45.197c0.628-0.001,1.141-0.512,1.144-1.143v-34.996
			C558.188,150.731,557.676,150.218,557.045,150.217z M540.387,177.634l0.374,1.382h-12.624l0.376-1.382l2.05-7.582
			c-1.54-1.193-2.466-3.043-2.466-5c0-3.503,2.85-6.352,6.352-6.352c3.501,0,6.353,2.849,6.353,6.352c0,1.957-0.928,3.806-2.469,5
			L540.387,177.634z M520.475,145.246c0-7.756,6.269-14.068,13.975-14.069c7.7,0.001,13.972,6.313,13.972,14.069v6.23h3.609v-6.582
			c0-4.619-1.806-8.966-5.082-12.244c-3.277-3.275-7.623-5.08-12.248-5.08h-0.505c-4.622,0-8.969,1.805-12.247,5.08
			c-3.275,3.275-5.081,7.625-5.081,12.244v6.582l3.607,0.001V145.246L520.475,145.246z"/>
		<path style="fill:#FFFFFF;" d="M540.387,177.634l0.374,1.382h-12.624l0.376-1.382l2.05-7.582c-1.54-1.193-2.466-3.043-2.466-5
			c0-3.503,2.85-6.352,6.352-6.352c3.501,0,6.353,2.849,6.353,6.352c0,1.957-0.928,3.806-2.469,5L540.387,177.634z"/>
	</g>
	<g>
		
			<ellipse transform="matrix(0.1613 -0.9869 0.9869 0.1613 -152.0111 512.2515)" style="fill:#E6A123;" cx="225.388" cy="345.564" rx="22.763" ry="22.763"/>
		<g>
			<path style="fill:#FFFFFF;" d="M226.703,333.848c-0.318-0.319-0.818-0.496-1.316-0.496c-0.446,0-0.999,0.177-1.315,0.495
				l-9.875,9.945c-0.485,0.486-0.627,1.219-0.361,1.853c0.264,0.632,0.886,1.044,1.572,1.043l3.223-0.025l-0.048,8.586
				c0.006,1.398,1.141,2.529,2.538,2.529h8.537c1.396,0,2.531-1.131,2.536-2.529l-0.046-8.582l3.221,0.023
				c0.688,0.002,1.31-0.411,1.574-1.044c0.266-0.633,0.123-1.367-0.361-1.853L226.703,333.848z"/>
		</g>
	</g>
</g>
</svg>
